<svg width="79" height="20" viewBox="0 0 79 20" fill="none" xmlns="http://www.w3.org/2000/svg">
<path fill-rule="evenodd" clip-rule="evenodd" d="M47.8157 5.69777C46.6713 5.71044 45.547 6.00325 44.5384 6.55128C44.5384 3.57552 44.5839 0.991919 44.6522 0L38.6211 1.17646V1.73009L39.2128 1.79929C40.0549 1.91463 40.3735 2.42213 40.4873 3.55245C40.6694 5.7439 40.6466 17.4393 40.4873 19.3078C42.1734 19.7127 43.8982 19.9293 45.6308 19.9537C50.4102 19.9537 53.3005 16.9549 53.3005 12.2029C53.2778 8.41977 50.9336 5.69777 47.8157 5.69777ZM45.7198 19.0075C45.3766 19.0034 45.0342 18.9725 44.6957 18.9152C44.6046 17.6003 44.5363 12.1794 44.5591 7.45045C45.0116 7.28694 45.4898 7.20876 45.9701 7.21977C47.9502 7.21977 49.0653 9.54963 49.0653 12.4562C49.0426 16.1932 47.6771 19.0075 45.7198 19.0075ZM15.0208 6.09011L15.9539 5.83636L15.8629 0.438477H0V1.19972L0.842076 1.31506C2.04829 1.4996 2.52623 2.26084 2.66278 3.96786C2.93589 7.28964 2.89037 13.2181 2.66278 16.0785C2.52623 17.8086 2.04829 18.5698 0.842076 18.7544L0 18.8697V19.654H10.196V18.8697L9.12629 18.7544C7.92007 18.5698 7.44213 17.8086 7.30558 16.0785C7.21455 14.902 7.14627 12.9182 7.12351 10.5883L9.21732 10.6575C10.6284 10.7037 11.2201 11.7648 11.5615 13.3334H12.358V6.82828H11.5615C11.2201 8.37383 10.6511 9.43495 9.24008 9.48108L7.12351 9.55029C7.10075 6.48226 7.16903 3.52957 7.30558 1.75335H10.4463C12.8815 1.75335 14.1787 3.32196 15.0208 6.09011ZM21.0279 5.53613C25.5341 5.53613 27.7645 8.62723 27.7645 12.7333C27.7645 16.8394 25.2383 19.9766 20.732 19.9766C16.2258 19.9766 13.9727 16.8855 13.9727 12.8025C13.9727 8.7195 16.4989 5.53613 21.0279 5.53613ZM18.2539 12.7563C18.2539 9.13461 18.8001 6.4126 20.8029 6.4126L20.7801 6.43567C22.6236 6.43567 23.534 9.13461 23.534 12.7563C23.534 16.3779 22.8284 19.0999 20.985 19.0999C19.1415 19.0999 18.2539 16.3779 18.2539 12.7563ZM54.3945 12.8952C54.3945 9.11202 56.7387 5.55957 61.4042 5.55957C65.1822 5.55957 66.9802 8.39692 67.0029 12.1108H58.5594C58.4684 15.4788 60.1525 17.9701 63.3843 17.9701C64.7953 17.9701 65.5691 17.6241 66.4339 16.9551L66.8208 17.4395C65.8877 18.7544 63.9305 20.0001 61.336 20.0001C57.2621 19.977 54.3945 17.0704 54.3945 12.8952ZM62.8379 11.0726L58.6048 11.1648L58.582 11.1418C58.6275 9.01952 59.5151 6.45898 61.04 6.45898C62.5648 6.45898 62.8607 9.18099 62.8379 11.0726ZM77.8395 9.80369L77.1567 9.98823C76.4284 7.56611 75.3132 6.55112 73.6746 6.55112C72.5822 6.55112 71.8084 7.38156 71.8084 8.58109C71.8084 9.78062 72.696 10.4035 75.2449 11.3954C77.7939 12.3873 78.5222 13.3792 78.5222 15.3169C78.5222 18.2004 76.3374 19.9766 72.7415 19.9766C71.1195 19.97 69.5106 19.6813 67.9849 19.1231L67.8711 15.1324L68.5539 14.9478C69.5325 17.739 70.8297 18.754 72.5367 18.754C74.2436 18.754 74.7898 17.716 74.7898 16.6087C74.7898 15.5015 74.1753 14.8786 71.8766 14.0482C69.578 13.2177 68.1897 12.3181 68.1897 9.89596C68.1897 7.47383 70.238 5.53613 73.6291 5.53613C75.1994 5.53613 76.7015 5.81295 77.7029 6.2743L77.8395 9.80369ZM33.8645 9.66529C34.2514 8.99632 36.2314 8.44269 38.0521 9.68836L39.5314 5.92829C38.0293 5.00558 35.2528 5.44387 33.8417 8.71951L33.91 5.53614L27.8789 6.7126V7.26623L28.4706 7.33543C29.3127 7.45077 29.6541 7.95827 29.7451 9.08859C29.9215 11.7384 29.9215 14.3972 29.7451 17.047C29.6313 18.1773 29.3127 18.6848 28.4706 18.8002L27.8789 18.8694V19.6537H36.2769V18.8694L35.1845 18.8002C34.3424 18.6848 34.001 18.1773 33.91 17.047C33.7478 14.5896 33.7326 12.1245 33.8645 9.66529Z" fill="#212121"/>
</svg>
