<svg width="40" height="40" viewBox="0 0 40 40" fill="none" xmlns="http://www.w3.org/2000/svg">
<path d="M5.79289 23.7929C5.40237 24.1834 5.40237 24.8166 5.79289 25.2071C6.18342 25.5976 6.81658 25.5976 7.20711 25.2071L5.79289 23.7929ZM39.7071 10.7071C40.0976 10.3166 40.0976 9.68342 39.7071 9.29289C39.3166 8.90237 38.6834 8.90237 38.2929 9.29289L39.7071 10.7071ZM28.2929 19.2929L27.5858 20L28.2929 19.2929ZM29.7071 19.2929L29 18.5858L29.7071 19.2929ZM20.7071 11.7071L20 12.4142L20.7071 11.7071ZM7.20711 25.2071L20 12.4142L18.5858 11L5.79289 23.7929L7.20711 25.2071ZM20 12.4142L27.5858 20L29 18.5858L21.4142 11L20 12.4142ZM30.4142 20L39.7071 10.7071L38.2929 9.29289L29 18.5858L30.4142 20ZM27.5858 20C28.3668 20.7811 29.6332 20.781 30.4142 20L29 18.5858L27.5858 20ZM20 12.4142L20 12.4142L21.4142 11C20.6332 10.219 19.3668 10.219 18.5858 11L20 12.4142Z" fill="#009AD7"/>
<path d="M1 1V38C1 38.5523 1.44772 39 2 39H39" stroke="#151A34" stroke-width="2" stroke-linecap="round"/>
</svg>
