<svg width="874" height="415" viewBox="0 0 874 415" fill="none" xmlns="http://www.w3.org/2000/svg">
<path d="M267.484 16.851C267.484 8.61501 274.161 1.93799 282.397 1.93799H614.212C622.448 1.93799 629.125 8.61501 629.125 16.851V209.788C629.125 218.025 622.448 224.701 614.212 224.701H282.397C274.161 224.701 267.484 218.025 267.484 209.788V16.851Z" fill="#E2F0FA"/>
<path d="M427.613 58.941C427.613 53.671 432.085 49.399 437.602 49.399H596.581C602.098 49.399 606.57 53.671 606.57 58.941V137.725C606.57 142.994 602.098 147.266 596.581 147.266H437.602C432.085 147.266 427.613 142.994 427.613 137.725V58.941Z" fill="#D4E8F5"/>
<path d="M598.208 66.276C598.208 71.851 593.689 76.37 588.114 76.37C582.539 76.37 578.02 71.851 578.02 66.276C578.02 60.701 582.539 56.182 588.114 56.182C593.689 56.182 598.208 60.701 598.208 66.276Z" fill="#AFCCE4"/>
<path d="M588.112 60.027C587.022 60.027 586.139 60.911 586.139 62V64.303H583.837C582.747 64.303 581.863 65.186 581.863 66.276C581.863 67.366 582.747 68.249 583.837 68.249H586.139V70.552C586.139 71.641 587.022 72.525 588.112 72.525C589.202 72.525 590.085 71.641 590.085 70.552V68.249H592.388C593.478 68.249 594.361 67.366 594.361 66.276C594.361 65.186 593.478 64.303 592.388 64.303H590.085V62C590.085 60.911 589.202 60.027 588.112 60.027Z" fill="#D4E8F5"/>
<path d="M288.926 53.152C288.926 50.091 291.907 47.609 295.585 47.609H401.571C405.249 47.609 408.23 50.091 408.23 53.152V98.922C408.23 101.983 405.249 104.465 401.571 104.465H295.585C291.907 104.465 288.926 101.983 288.926 98.922V53.152Z" fill="#D4E8F5"/>
<path d="M289.129 125.588C289.129 120.44 293.302 116.267 298.45 116.267H398.538C403.685 116.267 407.858 120.44 407.858 125.588V136.269C407.858 141.416 403.685 145.589 398.538 145.589H298.45C293.302 145.589 289.129 141.416 289.129 136.269V125.588Z" fill="#D7E8F4"/>
<path fill-rule="evenodd" clip-rule="evenodd" d="M338.081 134.38C331.545 128.313 321.749 127.395 314.2 132.141L301.907 139.871C300.817 140.556 299.379 140.228 298.694 139.139C298.009 138.049 298.337 136.611 299.426 135.926L311.719 128.196C321.054 122.326 333.169 123.462 341.251 130.965C346.822 136.135 354.87 137.639 361.932 134.829L370.533 131.406C377.533 128.62 385.19 127.92 392.579 129.393L397.259 130.326C398.521 130.577 399.34 131.804 399.089 133.066C398.837 134.328 397.61 135.148 396.348 134.896L391.669 133.963C385.163 132.667 378.42 133.282 372.256 135.736L363.656 139.159C354.923 142.635 344.969 140.775 338.081 134.38Z" fill="#FF566A"/>
<path d="M289.129 165.485C289.129 160.337 293.302 156.164 298.45 156.164H398.538C403.685 156.164 407.858 160.337 407.858 165.485V176.166C407.858 181.313 403.685 185.486 398.538 185.486H298.45C293.302 185.486 289.129 181.313 289.129 176.166V165.485Z" fill="#D7E8F4"/>
<path fill-rule="evenodd" clip-rule="evenodd" d="M380.159 173.286C376.019 174.565 371.54 174.144 367.711 172.115L359.87 167.962C353.61 164.647 346.1 164.715 339.902 168.144L334.473 171.147C329.895 173.68 324.379 173.863 319.643 171.638L301.653 163.188C300.489 162.641 299.101 163.142 298.554 164.307C298.006 165.472 298.507 166.859 299.672 167.406L317.661 175.856C323.751 178.717 330.842 178.482 336.729 175.225L342.158 172.222C346.979 169.555 352.82 169.502 357.689 172.08L365.529 176.234C370.453 178.841 376.211 179.383 381.535 177.739L397.488 172.811C398.717 172.432 399.406 171.127 399.026 169.897C398.647 168.668 397.342 167.979 396.112 168.359L380.159 173.286Z" fill="#BDD1DF"/>
<path d="M304.027 62.343C304.027 60.798 305.279 59.546 306.823 59.546H313.248C314.793 59.546 316.044 60.798 316.044 62.343V95.205C316.044 96.749 314.793 98.001 313.248 98.001H306.823C305.279 98.001 304.027 96.749 304.027 95.205V62.343Z" fill="#3A6FDF"/>
<path d="M304.027 62.343C304.027 60.798 305.279 59.546 306.823 59.546H313.248C314.793 59.546 316.044 60.798 316.044 62.343V71.928C316.044 73.585 314.701 74.928 313.044 74.928H307.027C305.37 74.928 304.027 73.585 304.027 71.928V62.343Z" fill="#FF566A"/>
<path d="M323.258 76.763C323.258 75.219 324.51 73.967 326.054 73.967H332.479C334.023 73.967 335.275 75.219 335.275 76.763V95.205C335.275 96.749 334.023 98.001 332.479 98.001H326.054C324.51 98.001 323.258 96.749 323.258 95.205V76.763Z" fill="#3A6FDF"/>
<path d="M342.484 88.3C342.484 86.755 343.736 85.504 345.281 85.504H351.705C353.25 85.504 354.502 86.755 354.502 88.3V95.205C354.502 96.749 353.25 98.001 351.705 98.001H345.281C343.736 98.001 342.484 96.749 342.484 95.205V88.3Z" fill="#3A6FDF"/>
<path d="M361.715 66.669C361.715 65.125 362.967 63.873 364.511 63.873H370.936C372.48 63.873 373.732 65.125 373.732 66.669V95.205C373.732 96.749 372.48 98.001 370.936 98.001H364.511C362.967 98.001 361.715 96.749 361.715 95.205V66.669Z" fill="#3A6FDF"/>
<path d="M380.938 77.725C380.938 76.18 382.189 74.928 383.734 74.928H390.158C391.703 74.928 392.955 76.18 392.955 77.725V95.205C392.955 96.749 391.703 98.001 390.158 98.001H383.734C382.189 98.001 380.938 96.749 380.938 95.205V77.725Z" fill="#3A6FDF"/>
<path d="M323.258 76.763C323.258 75.219 324.51 73.967 326.054 73.967H332.479C334.023 73.967 335.275 75.219 335.275 76.763V79.619C335.275 81.276 333.932 82.619 332.275 82.619H326.258C324.601 82.619 323.258 81.276 323.258 79.619V76.763Z" fill="#FF566A"/>
<path d="M342.484 88.3C342.484 86.755 343.736 85.504 345.281 85.504H351.705C353.25 85.504 354.502 86.755 354.502 88.3C354.502 89.941 353.171 91.272 351.529 91.272H345.456C343.815 91.272 342.484 89.941 342.484 88.3Z" fill="#FF566A"/>
<path d="M361.715 66.669C361.715 65.125 362.967 63.873 364.511 63.873H370.936C372.48 63.873 373.732 65.125 373.732 66.669V74.332C373.732 75.989 372.389 77.332 370.732 77.332H364.715C363.058 77.332 361.715 75.989 361.715 74.332V66.669Z" fill="#FF566A"/>
<path d="M380.938 77.725C380.938 76.18 382.189 74.928 383.734 74.928H390.158C391.703 74.928 392.955 76.18 392.955 77.725V79.619C392.955 81.276 391.611 82.619 389.955 82.619H383.938C382.281 82.619 380.938 81.276 380.938 79.619V77.725Z" fill="#FF566A"/>
<path d="M288.645 25.785C288.645 21.84 291.848 18.641 295.799 18.641H331.044C334.995 18.641 338.197 21.84 338.197 25.785C338.197 29.731 334.995 32.929 331.044 32.929H295.799C291.848 32.929 288.645 29.731 288.645 25.785Z" fill="#FF566A"/>
<path d="M295.943 28.369C297.454 28.369 298.679 27.144 298.679 25.633C298.679 24.122 297.454 22.897 295.943 22.897C294.432 22.897 293.207 24.122 293.207 25.633C293.207 27.144 294.432 28.369 295.943 28.369Z" fill="white"/>
<path fill-rule="evenodd" clip-rule="evenodd" d="M305.367 25.633C305.367 24.458 306.302 23.505 307.455 23.505H329.727C330.88 23.505 331.815 24.458 331.815 25.633C331.815 26.809 330.88 27.761 329.727 27.761H307.455C306.302 27.761 305.367 26.809 305.367 25.633Z" fill="white"/>
<path fill-rule="evenodd" clip-rule="evenodd" d="M356.965 25.632C356.965 24.345 357.92 23.302 359.099 23.302H381.861C383.039 23.302 383.995 24.345 383.995 25.632C383.995 26.919 383.039 27.962 381.861 27.962H359.099C357.92 27.962 356.965 26.919 356.965 25.632Z" fill="#A8CDE7"/>
<path fill-rule="evenodd" clip-rule="evenodd" d="M393.129 25.632C393.129 24.345 394.084 23.302 395.263 23.302H418.025C419.203 23.302 420.159 24.345 420.159 25.632C420.159 26.919 419.203 27.962 418.025 27.962H395.263C394.084 27.962 393.129 26.919 393.129 25.632Z" fill="#A8CDE7"/>
<path d="M545.521 413.836V397.059H515.229V377.02H491.461V339.737H316.7V400.787H264.504V413.836" stroke="#AFCCE4" stroke-linecap="round" stroke-linejoin="round"/>
<path d="M861.491 413.836H0.730469" stroke="#AFCCE4" stroke-linecap="round" stroke-linejoin="round"/>
<path d="M115.807 322.062H63.6797V339.703H115.807V322.062Z" stroke="#AFCCE4" stroke-linecap="round" stroke-linejoin="round"/>
<path d="M115.807 339.771H63.6797V414.268H115.807V339.771Z" stroke="#AFCCE4" stroke-linecap="round" stroke-linejoin="round"/>
<path d="M162.334 414.268H43.1719V325.355L162.334 414.268Z" stroke="#AFCCE4" stroke-linecap="round" stroke-linejoin="round"/>
<path d="M853.995 350.956H780.43V367.665H853.995V350.956Z" stroke="#AFCCE4" stroke-linecap="round" stroke-linejoin="round"/>
<path d="M797.139 367.733H780.43V413.336H797.139V367.733Z" stroke="#AFCCE4" stroke-linecap="round" stroke-linejoin="round"/>
<path d="M853.998 367.733H837.289V413.336H853.998V367.733Z" stroke="#AFCCE4" stroke-linecap="round" stroke-linejoin="round"/>
<path d="M134.882 23.802H39.8789V126.261H134.882V23.802Z" stroke="#AFCCE4" stroke-linecap="round" stroke-linejoin="round"/>
<path d="M139.633 13.549H35.125C32.0874 13.549 29.625 16.0114 29.625 19.049V143.13C29.625 146.168 32.0874 148.63 35.125 148.63H139.633C142.671 148.63 145.133 146.168 145.133 143.13V19.049C145.133 16.0114 142.671 13.549 139.633 13.549Z" stroke="#AFCCE4" stroke-linecap="round" stroke-linejoin="round"/>
<path d="M87.3789 24.7V123.964" stroke="#AFCCE4" stroke-linecap="round" stroke-linejoin="round"/>
<path d="M133.983 75.497H40.7773" stroke="#AFCCE4" stroke-linecap="round" stroke-linejoin="round"/>
<path d="M125.129 25.166L102.293 48.001" stroke="#AFCCE4" stroke-linecap="round" stroke-linejoin="round"/>
<path d="M122.331 65.244L112.078 75.497" stroke="#AFCCE4" stroke-linecap="round" stroke-linejoin="round"/>
<path d="M72.9317 33.554L62.6797 43.807" stroke="#AFCCE4" stroke-linecap="round" stroke-linejoin="round"/>
<path d="M86.9148 33.554L62.2148 58.72" stroke="#AFCCE4" stroke-linecap="round" stroke-linejoin="round"/>
<path d="M98.0996 109.984L87.8477 120.236" stroke="#AFCCE4" stroke-linecap="round" stroke-linejoin="round"/>
<path d="M80.8546 94.138L58.0195 115.576" stroke="#AFCCE4" stroke-linecap="round" stroke-linejoin="round"/>
<path d="M161.908 0.5H11.9141V25.5978H161.908V0.5Z" fill="white" stroke="#AFCCE4" stroke-linecap="round" stroke-linejoin="round"/>
<path d="M161.908 139.378H11.9141V155.155H161.908V139.378Z" fill="white" stroke="#AFCCE4" stroke-linecap="round" stroke-linejoin="round"/>
<path d="M758.059 145.546C758.059 144.278 759.089 143.25 760.359 143.25H854.499C855.769 143.25 856.799 144.278 856.799 145.546V159.413C856.799 160.681 855.769 161.709 854.499 161.709H760.359C759.089 161.709 758.059 160.681 758.059 159.413V145.546Z" fill="white" stroke="#AFCCE4" stroke-linecap="round" stroke-linejoin="round"/>
<path d="M848.687 108.384H792.93V143.06H848.687V108.384Z" stroke="#AFCCE4" stroke-linecap="round" stroke-linejoin="round"/>
<path d="M848.685 88.114H816.441V108.195H848.685V88.114Z" stroke="#AFCCE4" stroke-linecap="round" stroke-linejoin="round"/>
<path d="M798.852 115.667C798.852 114.913 799.462 114.303 800.212 114.303H812.702C813.452 114.303 814.062 114.913 814.062 115.667V122.479C814.062 123.233 813.452 123.843 812.702 123.843H800.212C799.462 123.843 798.852 123.233 798.852 122.479V115.667Z" stroke="#AFCCE4" stroke-linecap="round" stroke-linejoin="round"/>
<path d="M774.09 161.899H763.738V171.44H774.09V161.899Z" stroke="#AFCCE4" stroke-linecap="round" stroke-linejoin="round"/>
<path d="M850.312 161.899H839.961V171.44H850.312V161.899Z" stroke="#AFCCE4" stroke-linecap="round" stroke-linejoin="round"/>
<path d="M662.062 64.312C662.062 63.044 663.091 62.016 664.359 62.016H751.97C753.24 62.016 754.271 63.044 754.271 64.312V81.09C754.271 82.358 753.24 83.386 751.97 83.386H664.359C663.091 83.386 662.062 82.358 662.062 81.09V64.312Z" fill="white" stroke="#AFCCE4" stroke-linecap="round" stroke-linejoin="round"/>
<path d="M670.449 58.72C670.449 53.849 674.398 49.899 679.27 49.899H691.387C696.258 49.899 700.207 53.849 700.207 58.72C700.207 60.503 698.762 61.948 696.979 61.948H673.677C671.895 61.948 670.449 60.503 670.449 58.72Z" stroke="#AFCCE4" stroke-linecap="round" stroke-linejoin="round"/>
<path d="M738.422 47.103H708.664V61.9481H738.422V47.103Z" stroke="#AFCCE4" stroke-linecap="round" stroke-linejoin="round"/>
<path d="M738.426 32.19H717.988V47.0351H738.426V32.19Z" stroke="#AFCCE4" stroke-linecap="round" stroke-linejoin="round"/>
<path d="M692.751 20.971V49.831H677.906V20.971C677.906 16.872 681.229 13.549 685.329 13.549C689.428 13.549 692.751 16.872 692.751 20.971Z" stroke="#AFCCE4" stroke-linecap="round" stroke-linejoin="round"/>
<path d="M699.762 30.724C699.916 30.634 700.011 30.47 700.011 30.292V22.503C700.011 20.131 701.933 18.209 704.304 18.209C706.675 18.209 708.597 20.131 708.597 22.503V36.974L692.82 44.862V34.774L699.762 30.724Z" stroke="#AFCCE4" stroke-linecap="round" stroke-linejoin="round"/>
<path d="M749.607 83.454H737.559V94.5708H749.607V83.454Z" stroke="#AFCCE4" stroke-linecap="round" stroke-linejoin="round"/>
<path d="M685.295 83.454H673.246V94.5708H685.295V83.454Z" stroke="#AFCCE4" stroke-linecap="round" stroke-linejoin="round"/>
<path d="M173.77 113.786L191.056 136.067L169.689 168.778L143.52 162.378L173.77 113.786Z" fill="#578DFF"/>
<path d="M443.529 82.819C444.598 75.172 451.664 69.839 459.311 70.908L495.08 75.909C502.727 76.978 508.06 84.043 506.991 91.691L503.235 118.557C502.166 126.204 495.1 131.536 487.453 130.467L451.684 125.467C444.037 124.398 438.704 117.332 439.773 109.685L443.529 82.819Z" fill="#F8FCFF"/>
<path fill-rule="evenodd" clip-rule="evenodd" d="M459.752 116.578C459.907 115.241 461.068 114.278 462.345 114.426L479.917 116.469C481.194 116.618 482.103 117.822 481.947 119.159C481.792 120.496 480.631 121.46 479.354 121.312L461.782 119.269C460.505 119.12 459.596 117.916 459.752 116.578Z" fill="#D7E8F4"/>
<path fill-rule="evenodd" clip-rule="evenodd" d="M481.512 99.477C484.307 95.094 483.051 89.376 478.823 86.68L481.328 82.75C487.79 86.87 489.58 95.492 485.442 101.982C483.468 105.078 480.489 107.153 477.216 108.031L476.008 103.53C478.191 102.944 480.184 101.561 481.512 99.477Z" fill="#0F3E9F"/>
<path fill-rule="evenodd" clip-rule="evenodd" d="M478.74 86.63C474.336 83.822 468.536 85.1 465.774 89.432C463.012 93.764 464.3 99.561 468.704 102.369C471.008 103.838 473.694 104.19 476.134 103.567C477.381 103.249 478.65 104.002 478.968 105.249C479.286 106.496 478.533 107.764 477.287 108.083C473.645 109.012 469.628 108.485 466.198 106.299C459.653 102.125 457.68 93.457 461.845 86.926C466.009 80.395 474.7 78.527 481.245 82.701C482.33 83.392 482.649 84.833 481.957 85.918C481.265 87.003 479.825 87.322 478.74 86.63Z" fill="#FF566A"/>
<path d="M685.407 220.832C689.985 199.66 708.712 184.549 730.37 184.549C759.7 184.549 781.54 211.615 775.34 240.277L765.75 295.224C761.83 317.724 742.29 334.145 719.45 334.145H664.824L685.407 220.832Z" fill="#D7E8F4"/>
<path d="M617.758 272.163H674.614C681.82 272.163 687.663 278.005 687.663 285.212V334.611H617.758V272.163Z" fill="#D7E8F4"/>
<path d="M605.824 283.813C605.824 277.379 611.04 272.163 617.475 272.163C623.91 272.163 629.126 277.379 629.126 283.813V334.611H605.824V283.813Z" fill="#E2F0FA"/>
<path d="M710.964 316.902H605.641V334.611H710.964V316.902Z" fill="#E2F0FA"/>
<path d="M590.257 361.567L565.557 357.372L555.687 376.527L544.93 382.239L558.656 392.128L580.005 382.239L590.257 361.567Z" fill="#3A6FDF"/>
<path d="M545.467 381.9L531.66 388.149C528.824 389.432 529.24 393.866 532.242 394.372L563.025 399.556C563.658 399.663 564.309 399.46 564.802 399.004L567.117 396.86C568.57 395.514 570.795 396.413 571.009 398.432C571.168 399.924 572.22 401.105 573.599 401.337L574.344 401.462C575.873 401.72 577.363 400.689 577.796 399.075L580.448 389.19C580.882 387.574 581.044 385.895 580.927 384.232L580.649 380.281C578.295 379.841 575.866 380.039 573.615 380.856L564.649 384.109C553.02 388.189 549.985 385.624 545.467 381.9Z" fill="#FFB84C"/>
<path d="M619.045 277.051L667.001 278.562C687.722 279.214 691.854 296.2 691.854 316.931H617.789L619.045 277.051Z" fill="#120A3E"/>
<path d="M644.435 279.155L589.981 378.176L550.141 375.992L584.383 296.319C589.954 283.356 603.228 275.444 617.28 276.709L644.435 279.155Z" fill="#120A3E"/>
<path d="M659.645 191.674C660.676 182.396 664.296 177.46 668.169 175.347C669.741 174.489 671.58 174.387 673.37 174.438L707.534 175.398C740.092 175.398 736.802 188.031 737.582 206.386L739.742 266.217C739.932 271.493 735.702 275.873 730.422 275.873H670.638C665.571 275.873 661.432 271.826 661.319 266.76L659.645 191.674Z" fill="#FFB84C"/>
<path d="M712.078 175.678L685.98 175.228L689.811 187.377L700.585 188.277L712.078 175.678Z" fill="#578DFF"/>
<path d="M700.708 188.277L689.523 186.413L693.038 198.53L700.708 188.277Z" fill="#F8FCFF"/>
<path fill-rule="evenodd" clip-rule="evenodd" d="M738.609 234.96L739.709 265.513C739.919 271.173 735.379 275.873 729.719 275.873H718.39L687.145 263.499L732.89 229.235L738.609 234.96Z" fill="#FF7B1C"/>
<path d="M732.888 181.971C715.718 183.676 708.238 204.547 720.408 216.77L749.478 245.97L752.228 244.495C764.308 238.022 767.298 222.027 758.368 211.629L732.888 181.971Z" fill="#FFB84C"/>
<path d="M577.303 146.453L591.318 173.748L581.873 182.218L580.329 182.025C576.724 181.575 573.71 179.071 572.606 175.611L571.859 173.272C569.082 164.569 570.731 155.057 576.276 147.797L577.303 146.453Z" fill="#578DFF"/>
<path d="M514.48 126.761C514.48 119.039 520.74 112.78 528.461 112.78H563.88C571.601 112.78 577.861 119.039 577.861 126.761V154.723C577.861 162.444 571.601 168.704 563.88 168.704H528.461C520.74 168.704 514.48 162.444 514.48 154.723V126.761Z" fill="#F8FCFF"/>
<path d="M546.297 152.942C555.588 152.942 563.121 145.41 563.121 136.118C563.121 126.826 555.588 119.294 546.297 119.294C537.005 119.294 529.473 126.826 529.473 136.118C529.473 145.41 537.005 152.942 546.297 152.942Z" fill="#FF566A"/>
<path d="M546.046 135.034C548.196 135.034 549.939 133.291 549.939 131.141C549.939 128.991 548.196 127.248 546.046 127.248C543.895 127.248 542.152 128.991 542.152 131.141C542.152 133.291 543.895 135.034 546.046 135.034Z" fill="#F8FCFF"/>
<path d="M541.864 134.604C539.922 135.938 538.648 138.174 538.648 140.707C538.648 144.792 541.96 144.989 546.045 144.989C550.131 144.989 553.442 144.792 553.442 140.707C553.442 138.174 552.169 135.938 550.227 134.604C549.316 135.938 547.783 136.814 546.045 136.814C544.308 136.814 542.775 135.938 541.864 134.604Z" fill="#F8FCFF"/>
<path fill-rule="evenodd" clip-rule="evenodd" d="M534.988 160.781C534.988 159.494 536.032 158.451 537.318 158.451H555.028C556.315 158.451 557.358 159.494 557.358 160.781C557.358 162.068 556.315 163.111 555.028 163.111H537.318C536.032 163.111 534.988 162.068 534.988 160.781Z" fill="#D7E8F4"/>
<path d="M574.561 165.91L579.769 170.938L574.899 178.954L569.834 168.263C569.615 167.8 569.493 167.297 569.477 166.786L569.29 160.948C569.272 160.394 569.559 159.874 570.037 159.592C570.864 159.107 571.928 159.501 572.239 160.407L573.625 164.439C573.816 164.996 574.137 165.5 574.561 165.91Z" fill="#578DFF"/>
<path d="M681.094 204.664C687.636 199.927 689.853 191.187 686.359 183.904C681.68 174.149 669.104 171.346 660.724 178.19L613.027 217.146L631.283 240.735L681.094 204.664Z" fill="#FFB84C"/>
<path d="M660.82 213.443V220.588L636.586 236.744L660.82 213.443Z" fill="#FF7B1C"/>
<path d="M578.951 188.044C577.351 186.065 577.633 183.169 579.586 181.538L589.147 173.545C591.017 171.982 593.775 172.123 595.475 173.87L635.904 215.392C642.543 222.211 641.816 233.277 634.344 239.169C629.59 242.917 622.705 242.146 618.899 237.439L578.951 188.044Z" fill="#FFB84C"/>
<path d="M665.351 217.202C664.628 209.515 670.274 202.697 677.962 201.974L713.92 198.592C721.608 197.869 728.428 203.515 729.148 211.202L731.358 234.697C732.078 242.385 726.438 249.203 718.748 249.926L682.79 253.307C675.102 254.03 668.284 248.384 667.561 240.697L665.351 217.202Z" fill="#F8FCFF"/>
<path d="M685.016 212.392C683.363 212.392 681.73 212.753 680.228 213.449C678.727 214.145 677.393 215.16 676.317 216.424C675.242 217.688 674.451 219.172 673.999 220.774C673.547 222.375 673.445 224.056 673.698 225.701C673.952 227.346 674.557 228.916 675.47 230.304C676.383 231.691 677.584 232.863 678.989 233.739C680.395 234.615 681.972 235.174 683.612 235.378C685.253 235.582 686.917 235.426 688.492 234.921L685.016 223.929V212.392Z" fill="#FF566A"/>
<path d="M687.742 215.757C689.623 215.757 691.444 216.446 692.877 217.702C694.311 218.957 695.265 220.697 695.569 222.61C695.873 224.523 695.506 226.486 694.535 228.146C693.564 229.807 692.051 231.057 690.268 231.675L687.742 223.929V215.757Z" fill="#184099"/>
<path fill-rule="evenodd" clip-rule="evenodd" d="M702.174 221.466C702.034 220.127 702.957 218.934 704.236 218.8L721.829 216.961C723.109 216.827 724.259 217.804 724.399 219.143C724.539 220.482 723.619 221.676 722.339 221.81L704.743 223.649C703.464 223.782 702.314 222.805 702.174 221.466Z" fill="#AFCCE4"/>
<path d="M694.384 244.525L681.079 241.938C680.2 241.767 679.609 242.813 680.21 243.477L684.431 248.151L674.859 246.875C673.252 246.66 671.646 247.28 670.599 248.517C668.763 250.687 669.227 253.972 671.591 255.548L679.926 261.07C683.39 263.365 687.617 264.208 691.697 263.416L703.691 261.088L700.384 242.337L694.384 244.525Z" fill="#578DFF"/>
<path d="M698.767 241.65C696.592 242.564 695.442 244.959 696.09 247.228L699.326 258.552C700.026 261.002 702.564 262.436 705.024 261.77L751.33 249.236C766.23 245.203 771.64 226.869 761.31 215.394L698.767 241.65Z" fill="#FFB84C"/>
<path d="M662.989 272.163H738.178C738.178 298.2 716.688 319.103 690.661 318.383L660.816 317.557L662.989 272.163Z" fill="#261B65"/>
<path d="M674.383 363.587L647.225 368.153L652.191 388.276L643.566 396.963L659.543 402.387L676.88 384.491L674.383 363.587Z" fill="#3A6FDF"/>
<path d="M654.067 279.153L706.102 280.792C712.477 280.993 717.599 286.122 717.779 292.498C718.209 307.086 706.298 319.04 691.709 318.658L652.855 317.642L654.067 279.153Z" fill="#261B65"/>
<path d="M656.952 279.155L685.072 378.176L645.232 375.993L624.514 322.113C616.088 300.201 633.57 277.049 656.952 279.155Z" fill="#261B65"/>
<path d="M643.95 396.261L632.577 406.279C630.242 408.336 631.937 412.454 634.956 412.059L665.908 408.004C666.545 407.92 667.108 407.536 667.446 406.955L669.031 404.228C670.027 402.515 672.418 402.723 673.213 404.592C673.801 405.972 675.153 406.793 676.539 406.611L677.289 406.513C678.826 406.311 679.949 404.89 679.891 403.219L679.533 392.991C679.474 391.319 679.138 389.666 678.539 388.11L677.117 384.414C674.737 384.681 672.473 385.582 670.559 387.022L662.938 392.758C653.013 400.064 649.36 398.5 643.95 396.261Z" fill="#FFB84C"/>
<path d="M684.863 156.358H701.801L706.492 176.483L690.261 180.572L684.863 156.358Z" fill="#578DFF"/>
<path d="M687.117 166.656L701.403 157.486V159.015L688.876 174.403L687.117 166.656Z" fill="#3A6FDF"/>
<path d="M684.136 145.052C686.846 137.521 695.58 134.197 702.553 138.042C708.168 141.139 710.701 147.899 708.519 153.963L705.889 161.273C703.179 168.804 694.445 172.128 687.471 168.282C681.857 165.186 679.323 158.425 681.505 152.362L684.136 145.052Z" fill="#578DFF"/>
<path d="M704.001 165.927C704.672 164.983 705.775 162.063 706.195 160.914L708.953 153.379C711.176 147.306 708.68 140.556 703.077 137.49C697.566 134.474 690.922 135.966 687.035 140.471C687.7 143.724 689.721 146.66 692.838 148.365L697.757 151.057L697.433 152.369C696.038 158.019 698.917 163.686 704.001 165.927Z" fill="#273238"/>
<path d="M688.448 154.029C688.865 154.258 689.389 154.105 689.617 153.687C689.845 153.27 689.692 152.747 689.275 152.518C688.858 152.29 688.334 152.443 688.106 152.861C687.878 153.278 688.031 153.801 688.448 154.029Z" fill="#273238"/>
<path d="M682.745 151.891C683.162 152.12 683.686 151.967 683.914 151.549C684.142 151.132 683.989 150.609 683.572 150.38C683.155 150.152 682.631 150.305 682.403 150.723C682.175 151.14 682.328 151.663 682.745 151.891Z" fill="#273238"/>
<path d="M681.961 156.003C681.29 155.131 683.864 153.37 685.235 152.598L684.833 156.378C684.78 156.885 684.303 157.231 683.824 157.07C683.17 156.851 682.34 156.493 681.961 156.003Z" fill="#2149CC"/>
<path fill-rule="evenodd" clip-rule="evenodd" d="M685.701 147.883C685.201 147.516 684.558 147.39 683.952 147.539L683.786 147.58C683.439 147.665 683.087 147.458 683 147.118C682.913 146.778 683.124 146.433 683.471 146.348L683.637 146.307C684.621 146.065 685.664 146.27 686.476 146.866L686.562 146.929C686.849 147.139 686.907 147.537 686.693 147.818C686.479 148.098 686.073 148.156 685.787 147.946L685.701 147.883ZM688.346 148.267C688.389 147.919 688.712 147.671 689.067 147.713L689.337 147.745C690.82 147.92 692.143 148.741 692.94 149.98L693.031 150.121C693.222 150.417 693.131 150.809 692.829 150.997C692.527 151.184 692.127 151.095 691.936 150.799L691.845 150.658C691.256 149.742 690.278 149.135 689.182 149.006L688.912 148.974C688.557 148.931 688.304 148.615 688.346 148.267Z" fill="#273238"/>
<path d="M683.666 158.285L686.688 159.938C685.266 161.778 682.884 160.474 683.666 158.285Z" fill="white"/>
<path d="M708.632 150.063C713.522 150.063 717.487 146.307 717.487 141.674C717.487 137.041 713.522 133.285 708.632 133.285C703.742 133.285 699.777 137.041 699.777 141.674C699.777 146.307 703.742 150.063 708.632 150.063Z" fill="#273238"/>
<path d="M696.859 161.086C698.528 161.999 700.622 161.387 701.535 159.718C702.448 158.049 701.836 155.955 700.167 155.042C698.498 154.129 696.404 154.741 695.491 156.41C694.577 158.079 695.19 160.173 696.859 161.086Z" fill="#578DFF"/>
<path d="M697.685 159.575C698.52 160.032 699.567 159.725 700.023 158.891C700.48 158.056 700.174 157.01 699.339 156.553C698.505 156.096 697.458 156.403 697.001 157.237C696.545 158.072 696.851 159.118 697.685 159.575Z" fill="#3A6FDF"/>
<path d="M730.539 313.173H747.279L765.649 406.596C766.289 409.863 763.789 412.904 760.459 412.904C758.049 412.904 755.939 411.275 755.339 408.942L730.539 313.173Z" fill="#D7E8F4"/>
<path d="M691.391 314.106H708.56L727.352 406.403C728.032 409.762 725.462 412.904 722.042 412.904C719.582 412.904 717.442 411.257 716.802 408.888L691.391 314.106Z" fill="#E2F0FA"/>
<path d="M698.844 272.163H761.27C765.92 272.163 769.68 275.926 769.68 280.569C769.68 310.416 745.49 334.611 715.64 334.611H698.844V272.163Z" fill="#D7E8F4"/>
<path d="M687.848 283.813C687.848 277.379 693.064 272.163 699.498 272.163C705.933 272.163 711.149 277.379 711.149 283.813V334.611H687.848V283.813Z" fill="#E2F0FA"/>
<path d="M250.962 316.637C253.256 306.171 253.397 295.347 251.377 284.825L235 199.536L221.6 201.73L191.059 236.52L217.408 304.44C217.91 305.735 218.106 307.128 217.98 308.511L212.006 374.116L236.177 384.084L250.962 316.637Z" fill="#120A3E"/>
<path d="M239.36 386.021C239.785 386.908 240.018 387.894 240.018 388.916V391.736C240.018 392.898 240.32 394.04 240.895 395.05L244.933 402.135C247.475 406.597 244.253 412.141 239.118 412.141H236.063C234.454 412.141 232.898 411.561 231.682 410.508L209.023 390.889C207.23 389.336 206.392 386.95 206.822 384.618L207.691 379.895C207.791 379.351 207.958 378.821 208.189 378.318L208.686 377.234C210.244 373.833 214.288 372.37 217.662 373.987L228.179 379.028C228.578 377.5 229.739 376.21 231.362 375.721C233.839 374.974 236.453 376.377 237.199 378.854L239.36 386.021Z" fill="#FF566A"/>
<path d="M245.097 408.456C244.313 408.714 243.458 408.857 242.549 408.857H239.151C237.361 408.857 235.631 408.267 234.278 407.196L209.075 387.236C208.05 386.425 207.305 385.389 206.889 384.252L206.822 384.618C206.392 386.95 207.23 389.336 209.023 390.889L231.682 410.508C232.898 411.561 234.454 412.141 236.063 412.141H239.118C241.839 412.141 244.023 410.584 245.097 408.456Z" fill="#EDE0E0"/>
<path d="M211.629 374.111L222.233 379.413C225.705 381.149 228.52 383.964 230.256 387.436L230.89 388.703C232.759 392.442 236.58 394.803 240.759 394.803C240.271 393.856 240.015 392.805 240.015 391.736V388.916C240.015 387.894 239.783 386.908 239.357 386.021L237.197 378.854C236.45 376.377 233.837 374.974 231.359 375.721C229.737 376.21 228.575 377.5 228.177 379.028L217.66 373.987C215.666 373.032 213.439 373.152 211.629 374.111Z" fill="#EC3D52"/>
<path d="M169.617 193.943H234.446L239.8 224.627L169.896 239.54L169.617 193.943Z" fill="#261B65"/>
<path d="M222.247 201.991L190.029 396.197L163.84 397.991L169.975 238.613L222.247 201.991Z" fill="#261B65"/>
<path d="M191.165 396.004L191.303 396.19C192.204 397.406 193.528 398.261 195.028 398.595L204.772 400.762C208.102 401.502 210.229 404.685 209.58 407.955L209.205 409.842C208.628 412.745 206.022 414.842 202.989 414.842H168.375C165.847 414.842 163.562 413.376 162.561 411.113L160.814 407.161C160.03 405.388 160.142 403.359 161.117 401.678L164.608 395.656C165.732 393.718 167.837 392.52 170.12 392.52H180.937C180.751 390.52 182.023 388.6 184.073 387.998C186.416 387.309 188.889 388.603 189.595 390.888L191.086 395.713C191.116 395.81 191.143 395.907 191.165 396.004Z" fill="#FF566A"/>
<path d="M209.512 409.176C208.169 410.509 206.195 411.334 204.032 411.334H164.338C163.52 411.334 162.724 411.215 161.977 410.993L161.978 410.996C162.995 413.286 165.319 414.768 167.889 414.768H203.085C206.168 414.768 208.819 412.648 209.405 409.711L209.512 409.176Z" fill="#EDE0E0"/>
<path d="M164.797 395.567H178.582C180.258 395.567 181.867 396.23 183.056 397.411C184.612 398.956 186.786 399.707 188.963 399.453L195.555 398.683L194.467 398.437C193.006 398.106 192.213 396.868 191.335 395.661C191.313 395.565 191.364 395.757 191.335 395.661L189.882 390.884C189.194 388.616 186.075 387.239 183.792 387.922C181.794 388.52 180.555 390.424 180.736 392.41H170.194C167.97 392.41 165.918 393.598 164.823 395.521L164.797 395.567Z" fill="#EC3D52"/>
<path d="M236.408 177.962C228.466 176.235 223.495 168.317 225.393 160.414C227.485 151.703 236.9 146.957 245.147 150.455L295.804 171.942L290.796 189.784L236.408 177.962Z" fill="#3A6FDF"/>
<path d="M290.793 189.784L295.488 171.942L305.78 170.317C309.623 169.711 313.018 172.865 312.695 176.742L311.87 186.641C311.639 189.408 309.199 191.457 306.434 191.206L290.793 189.784Z" fill="#3A6FDF"/>
<path d="M317.82 113.786L293.586 195.807" stroke="#0F3E9F" stroke-width="7" stroke-linecap="round" stroke-linejoin="round"/>
<path d="M303.584 190.082C298.56 188.874 295.986 183.287 298.333 178.683C299.106 177.165 300.345 175.933 301.868 175.169L307.091 172.548C309.895 171.14 313.156 173.362 312.87 176.487L312.039 185.555C311.73 188.94 308.489 191.262 305.185 190.467L303.584 190.082Z" fill="#578DFF"/>
<path d="M208.94 124.796C206.656 119.115 208.627 112.61 213.681 109.153C223.987 102.103 238.172 106.496 242.691 118.136L255.228 150.434C255.667 151.564 255.348 152.849 254.43 153.642L229.282 175.392L208.94 124.796Z" fill="#EC3D52"/>
<path d="M167.916 124.923C168.138 115.609 175.43 108.004 184.726 107.391L221.936 104.938C233.475 104.178 243.252 113.332 243.252 124.895V186.108C243.252 193.606 237.716 199.952 230.287 200.969L189.159 206.602C176.956 208.273 166.157 198.623 166.451 186.31L167.916 124.923Z" fill="#FF566A"/>
<path d="M169.617 166.339L172.453 208.856L186 206.967L191.987 139.884L169.617 166.339Z" fill="#EC3D52"/>
<path d="M144.29 169.917C141.26 162.481 145.198 154.039 152.843 151.581C160.502 149.118 168.636 153.708 170.487 161.538L183.099 214.866C184.27 219.819 181.351 224.819 176.462 226.233C171.771 227.591 166.812 225.188 164.969 220.666L144.29 169.917Z" fill="#578DFF"/>
<path d="M169.82 115.617C174.634 108.085 184.535 105.614 192.372 109.913C200.888 114.584 203.685 125.392 198.595 133.664L179.875 164.087L149.605 157.179C146.906 156.564 145.634 153.458 147.125 151.126L169.82 115.617Z" fill="#FF566A"/>
<path d="M182.015 210.18L166.168 222.763L169.3 229.249C171.295 233.38 175.845 235.624 180.337 234.691L191.774 232.317C194.6 231.73 196.28 228.809 195.366 226.071C194.123 222.35 191.928 219.018 189 216.407L182.015 210.18Z" fill="#578DFF"/>
<path d="M190.774 211.566C190.774 209.377 184.709 208.988 181.75 209.377L182.13 215.053C185.76 213.254 190.774 212.685 190.774 211.566Z" fill="#578DFF"/>
<path fill-rule="evenodd" clip-rule="evenodd" d="M189.594 106.016C189.93 105.842 190.343 105.977 190.516 106.317L216.072 156.627L218.707 104.971C218.73 104.59 219.054 104.3 219.432 104.325C219.809 104.349 220.096 104.678 220.073 105.06L217.286 159.23C217.267 159.541 217.045 159.8 216.743 159.863C216.442 159.927 216.135 159.778 215.994 159.501L189.299 106.947C189.126 106.607 189.258 106.19 189.594 106.016Z" fill="white"/>
<path d="M208.432 153.719C208.233 152.074 209.405 150.58 211.05 150.381L219.481 149.36C221.126 149.161 222.621 150.333 222.82 151.978L225.001 170.002C225.2 171.647 224.027 173.141 222.383 173.341L213.951 174.361C212.306 174.56 210.811 173.388 210.612 171.743L208.432 153.719Z" fill="#FFB84C"/>
<path d="M194.786 90.484L211.714 93.456L214.359 106.424L192.734 109.125L194.786 90.484Z" fill="#578DFF"/>
<path d="M213.963 104.367C213.13 104.596 212.266 104.761 211.375 104.857C204.324 105.616 196.402 98.892 195.055 92.268L194.785 90.484L212.033 93.287L213.963 104.367Z" fill="#3A6FDF"/>
<path d="M191.801 106.721C193.601 114.149 196.552 121.473 208.355 120.168C218.645 118.537 218.365 112.269 218.365 104.857C218.648 104.857 217.154 104.895 218.365 104.857L191.801 106.721Z" fill="#578DFF"/>
<path d="M215.438 79.299C214.149 73.1445 208.114 69.2005 201.96 70.4897C195.806 71.7789 191.862 77.8132 193.151 83.9676L194.982 92.7076C196.271 98.8621 202.305 102.806 208.46 101.517C214.614 100.228 218.558 94.1934 217.269 88.039L215.438 79.299Z" fill="#578DFF"/>
<path d="M195.791 85.854C196.142 86.159 196.396 86.545 196.51 86.996C196.879 88.445 195.668 90.004 193.804 90.478C191.941 90.952 190.132 90.162 189.763 88.713C189.613 88.123 189.724 87.515 190.035 86.97C189.047 86.658 188.238 85.858 187.964 84.78C187.601 83.353 188.293 81.906 189.55 81.263C189.429 81.011 189.331 80.742 189.259 80.459C188.768 78.529 189.675 76.606 191.31 75.97L191.304 75.947C190.777 73.877 192.196 71.729 194.473 71.149C194.947 71.028 195.421 70.985 195.879 71.011C196.041 69.444 197.158 68.071 198.774 67.66C199.978 67.353 201.194 67.648 202.105 68.356C202.626 67.756 203.352 67.293 204.213 67.074C205.517 66.742 206.818 67.049 207.721 67.787C207.802 67.76 207.884 67.736 207.968 67.715C209.832 67.241 211.727 68.367 212.201 70.23C212.312 70.669 212.335 71.109 212.281 71.533C213.812 71.558 215.199 72.6 215.595 74.156C216.069 76.019 214.943 77.914 213.08 78.388C212.116 78.634 211.143 78.451 210.364 77.959C207.078 78.461 203.916 77.834 201.487 76.364C200.75 76.767 199.951 77.085 199.098 77.302C198.902 77.352 198.706 77.395 198.51 77.433C197.966 77.989 197.252 78.417 196.422 78.636C196.889 81.145 196.603 83.683 195.791 85.854Z" fill="#102054"/>
<path d="M195.516 95.6306C197.586 95.1038 198.838 92.9983 198.311 90.928C197.784 88.8577 195.678 87.6065 193.608 88.1333C191.538 88.6602 190.286 90.7657 190.813 92.836C191.34 94.9063 193.446 96.1575 195.516 95.6306Z" fill="#578DFF"/>
<path d="M195.344 94.0153C196.379 93.7519 197.005 92.6992 196.741 91.664C196.478 90.6288 195.425 90.0033 194.39 90.2667C193.355 90.5301 192.729 91.5828 192.993 92.618C193.256 93.6532 194.309 94.2788 195.344 94.0153Z" fill="#3A6FDF"/>
<path d="M207.293 87.4688C206.751 87.6986 206.126 87.4457 205.896 86.904C205.666 86.3623 205.919 85.7369 206.461 85.5072C207.002 85.2774 207.628 85.5303 207.857 86.072C208.087 86.6137 207.834 87.2391 207.293 87.4688Z" fill="black"/>
<path d="M214.574 85.5378C214.032 85.7676 213.407 85.5147 213.177 84.973C212.947 84.4313 213.2 83.8059 213.742 83.5762C214.284 83.3464 214.909 83.5993 215.139 84.141C215.368 84.6827 215.116 85.3081 214.574 85.5378Z" fill="black"/>
<path d="M215.033 90.695C215.967 89.704 213.015 87.22 211.422 86.102L211.452 90.804C211.456 91.435 212 91.918 212.609 91.78C213.441 91.591 214.507 91.252 215.033 90.695Z" fill="#2149CC"/>
<path fill-rule="evenodd" clip-rule="evenodd" d="M211.427 80.241C212.089 79.851 212.895 79.774 213.622 80.032L213.823 80.103C214.239 80.251 214.697 80.039 214.846 79.631C214.995 79.223 214.778 78.773 214.362 78.625L214.162 78.554C212.98 78.135 211.671 78.26 210.598 78.893L210.485 78.96C210.106 79.183 209.985 79.666 210.214 80.038C210.443 80.41 210.936 80.531 211.314 80.308L211.427 80.241ZM208.124 80.388C208.114 79.954 207.747 79.609 207.305 79.617L206.969 79.623C205.122 79.657 203.392 80.505 202.259 81.931L202.13 82.094C201.858 82.435 201.921 82.929 202.271 83.197C202.62 83.464 203.123 83.404 203.395 83.063L203.523 82.901C204.361 81.846 205.64 81.219 207.005 81.194L207.341 81.188C207.784 81.18 208.134 80.822 208.124 80.388Z" fill="#102054"/>
<path d="M212.657 93.294L208.734 94.958C210.259 97.398 213.351 96.086 212.657 93.294Z" fill="white"/>
<path d="M78.0853 218.646C92.8723 216.94 97.9913 232.628 98.7023 240.685C95.8583 239.974 92.7333 235.014 75.9523 233.576C51.0703 231.443 25.7133 208.565 16.9453 212.119C29.2683 205.484 63.2983 220.352 78.0853 218.646Z" fill="#01ACA2"/>
<path d="M83.8208 203.187C91.8288 217.159 95.9998 243.715 97.0848 255.246C91.8748 248.565 77.7758 231.676 63.0628 217.57C44.6708 199.938 46.5348 193.07 38.1368 181.31C31.4198 171.902 18.9188 168.018 13.5078 167.252C15.5538 163.594 24.1188 166.971 37.0568 173.642C49.9958 180.314 49.8968 172.913 53.5558 174.959C57.2138 177.005 73.8108 185.723 83.8208 203.187Z" fill="#00C8BC"/>
<path d="M18.694 179.194C27.037 176.402 38.794 184.683 41.71 186.879C41.888 186.225 38.117 179.829 36.973 177.833C35.543 175.338 20.011 162.696 12.526 166.986C6.538 170.418 3.93 185.723 3.375 192.946C5.005 189.526 10.352 181.987 18.694 179.194Z" fill="#01ACA2"/>
<path d="M93.7242 183.682C78.7952 211.408 88.0362 239.371 93.7242 249.087C105.667 222.925 140.645 141.027 143.489 123.964C132.826 131.074 111.395 150.862 93.7242 183.682Z" fill="#00C8BC"/>
<path d="M110.079 189.37C94.7234 214.394 92.7794 240.082 93.7274 249.798C103.965 233.874 126.904 173.018 137.094 144.581C134.487 149.084 125.435 164.345 110.079 189.37Z" fill="#01ACA2"/>
<path d="M98.5568 228.397C88.4098 239.764 91.9709 255.759 95.0199 262.335C99.7679 269.299 103.995 262.986 108.135 248.759C116.887 218.683 130.461 207.884 142.062 195.031C135.876 201.102 111.24 214.187 98.5568 228.397Z" fill="#01ACA2"/>
<path d="M126.652 199.011C112.344 209.809 110.402 216.327 105.266 221.835C116.566 216.197 132.884 203.869 138.749 199.011L146.069 189.881C140.793 189.881 139.392 189.395 126.652 199.011Z" fill="#00C8BC"/>
<path d="M87.7295 233.836C93.4175 231.561 101 244.736 104.08 251.609C104.08 253.741 100.526 255.874 89.8625 255.874C81.3315 255.874 69.7195 249.239 64.9805 245.921C76.3545 245.921 80.6205 236.679 87.7295 233.836Z" fill="#01ACA2"/>
<path d="M79.1998 231.702C84.9998 231.702 89.1518 232.887 90.5738 233.835C86.3078 233.835 82.0428 238.812 77.7778 242.366C73.5118 245.921 66.4018 245.921 58.5828 253.741C50.7628 261.561 42.9419 283.6 40.0979 282.889C37.2539 282.178 27.0628 267.96 32.9888 253.741C40.0998 236.679 44.0138 229.872 50.7628 226.015C55.7388 223.172 59.2938 223.882 65.6918 226.726C69.2468 228.306 71.3798 231.702 79.1998 231.702Z" fill="#00C8BC"/>
<path d="M108.846 262.842H69.6992V321.562H108.846V262.842Z" fill="#E2F0FA"/>
<path d="M65.9727 258.182C65.9727 255.608 68.0587 253.521 70.6327 253.521H106.983C109.557 253.521 111.644 255.608 111.644 258.182C111.644 260.755 109.557 262.842 106.983 262.842H70.6327C68.0587 262.842 65.9727 260.755 65.9727 258.182Z" fill="#E2F0FA"/>
<path d="M369.401 298.78H446.771L451.499 330.47L362.953 327.169L369.401 298.78Z" fill="#120A3E"/>
<path d="M478.29 184.861C477.862 189.622 475.981 194.136 472.901 197.791L441.999 234.468L416.086 212.427L445.125 184.301C447.997 181.519 450.105 178.045 451.246 174.213L460.786 142.176C461.427 140.025 463.51 138.636 465.742 138.871L479.525 140.326C481.044 140.486 482.153 141.835 482.016 143.356L478.29 184.861Z" fill="#FF566A"/>
<path d="M476.352 134.398C475.751 132.664 474.65 131.146 473.189 130.035L471.024 128.389C470.763 128.19 470.466 128.042 470.149 127.955L461.581 125.586C461.214 125.485 460.873 125.31 460.576 125.073L456.113 121.493C455.688 121.153 455.112 121.073 454.612 121.286C453.777 121.641 453.455 122.659 453.934 123.431L458.281 130.45L458.194 130.443L463.657 140.097L478.877 141.674L476.352 134.398Z" fill="#578DFF"/>
<path d="M459.596 139.807C459.646 138.779 460.52 137.986 461.548 138.036L481.585 139.014C482.614 139.064 483.406 139.938 483.356 140.967L483.157 145.042C483.107 146.07 482.233 146.863 481.205 146.813L461.168 145.835C460.14 145.785 459.347 144.91 459.397 143.882L459.596 139.807Z" fill="#F14358"/>
<path d="M372.895 221.415C373.051 218.981 374.941 217.016 377.366 216.763L435.086 210.753C437.835 210.466 440.295 212.465 440.578 215.215L449.073 297.93C449.376 300.877 447.062 303.44 444.099 303.44H372.949C370.062 303.44 367.774 301.001 367.96 298.119L372.895 221.415Z" fill="#FF566A"/>
<path d="M366.098 277.812L380.079 257.716L389.399 303.333H368.308L366.098 277.812Z" fill="#F14358"/>
<path fill-rule="evenodd" clip-rule="evenodd" d="M387.055 212.475C387.391 212.301 387.804 212.436 387.977 212.776L413.533 263.086L416.168 211.43C416.191 211.049 416.515 210.759 416.893 210.784C417.27 210.808 417.557 211.137 417.534 211.519L414.747 265.689C414.728 266 414.506 266.259 414.204 266.322C413.903 266.386 413.596 266.237 413.455 265.96L386.76 213.406C386.587 213.066 386.719 212.649 387.055 212.475Z" fill="white"/>
<path d="M417.461 256.198L409.029 257.219C407.384 257.418 406.212 258.912 406.411 260.557L408.592 278.581C408.791 280.226 410.286 281.398 411.931 281.199L420.362 280.179C422.007 279.98 423.179 278.485 422.98 276.84L420.799 258.816C420.6 257.172 419.105 255.999 417.461 256.198Z" fill="#FFB84C"/>
<path d="M401.562 330.723L410.207 356.243L396.942 360.169L389.547 336.04L401.562 330.723Z" fill="#578DFF"/>
<path d="M500.895 312.637C503.375 324.112 496.367 335.502 485.006 338.462L405.482 359.178L398.371 330.936L470.222 297.412C482.963 291.468 497.926 298.894 500.895 312.637Z" fill="#120A3E"/>
<path d="M398.049 359.017L390.116 336.505C389.818 335.659 388.822 335.295 388.049 335.75L367.435 347.887C362.859 350.582 359.48 354.918 357.984 360.013L357.787 360.686C356.804 364.035 358.79 367.532 362.169 368.405L364.066 368.894C368.13 369.943 372.417 369.744 376.367 368.323L397.187 360.831C397.924 360.566 398.309 359.756 398.049 359.017Z" fill="#FFB84C"/>
<path d="M390.671 338.078L371.291 349C370.072 349.687 369.532 351.157 370.016 352.469L373.317 361.416C373.866 362.904 375.524 363.657 377.006 363.093L396.825 355.542L390.671 338.078Z" fill="#FF9F3B"/>
<path d="M397.765 347.432C398.882 350.327 397.427 353.578 394.523 354.675L380.309 360.045C377.407 361.141 374.168 359.666 373.089 356.757L372.615 355.478C371.643 352.857 372.757 349.92 375.222 348.602L388.708 341.394C391.672 339.809 395.354 341.178 396.563 344.314L397.765 347.432Z" fill="#FF7B1C"/>
<path d="M413.915 185.708L396.39 191.539L392.195 213.443H413.873L413.915 185.708Z" fill="#578DFF"/>
<path d="M414.128 197.314L394.707 190.124L394.993 191.923L398.256 202.724C398.256 202.724 399.626 206.918 407.11 206.918C414.594 206.918 414.128 197.314 414.128 197.314Z" fill="#2149CC"/>
<path d="M411.458 177.299C407.503 170.125 398.155 168.179 391.745 173.195C386.585 177.234 385.126 184.478 388.311 190.253L392.15 197.217C396.105 204.39 405.453 206.336 411.862 201.32C417.023 197.282 418.481 190.038 415.297 184.262L411.458 177.299Z" fill="#578DFF"/>
<path d="M394.818 201.614C393.987 200.769 392.401 197.996 391.791 196.903L387.787 189.733C384.56 183.954 385.982 176.727 391.135 172.721C396.205 168.78 403.148 169.213 407.799 173.138C407.656 176.533 406.093 179.828 403.227 182.057L398.702 185.574L399.242 186.847C401.566 192.332 399.582 198.527 394.818 201.614Z" fill="#273238"/>
<path d="M401.228 195.566C399.693 196.759 397.482 196.479 396.29 194.94C395.098 193.401 395.377 191.185 396.912 189.992C398.447 188.799 400.658 189.079 401.85 190.618C403.042 192.157 402.763 194.373 401.228 195.566Z" fill="#578DFF"/>
<path d="M400.147 194.172C399.38 194.769 398.274 194.629 397.678 193.859C397.082 193.09 397.221 191.982 397.989 191.386C398.757 190.789 399.862 190.929 400.458 191.699C401.054 192.468 400.915 193.576 400.147 194.172Z" fill="#2149CC"/>
<path d="M407.826 187.482C407.391 187.774 406.802 187.658 406.509 187.224C406.217 186.789 406.332 186.199 406.767 185.906C407.202 185.614 407.792 185.73 408.084 186.164C408.377 186.599 408.261 187.189 407.826 187.482Z" fill="#273238"/>
<path d="M413.865 184.563C413.43 184.855 412.841 184.739 412.548 184.305C412.256 183.87 412.371 183.28 412.806 182.987C413.241 182.695 413.831 182.811 414.123 183.245C414.416 183.68 414.3 184.27 413.865 184.563Z" fill="#273238"/>
<path d="M415.133 188.995C415.783 187.971 412.781 186.297 411.199 185.589L412.02 189.696C412.13 190.247 412.687 190.578 413.197 190.354C413.892 190.048 414.768 189.572 415.133 188.995Z" fill="#2149CC"/>
<path fill-rule="evenodd" clip-rule="evenodd" d="M410.217 180.461C410.729 180.008 411.421 179.805 412.101 179.907L412.288 179.936C412.678 179.995 413.043 179.732 413.104 179.35C413.165 178.968 412.9 178.611 412.51 178.552L412.323 178.524C411.219 178.357 410.096 178.687 409.264 179.422L409.176 179.5C408.883 179.759 408.858 180.202 409.122 180.489C409.385 180.775 409.836 180.798 410.129 180.539L410.217 180.461ZM407.353 181.148C407.271 180.77 406.892 180.53 406.506 180.612L406.213 180.674C404.604 181.016 403.234 182.05 402.484 183.489L402.399 183.652C402.219 183.997 402.357 184.418 402.708 184.593C403.059 184.768 403.489 184.631 403.668 184.286L403.754 184.123C404.308 183.059 405.321 182.295 406.51 182.042L406.803 181.98C407.189 181.898 407.435 181.526 407.353 181.148Z" fill="#273238"/>
<path d="M413.498 191.67L410.348 193.789C412.094 195.664 414.577 193.995 413.498 191.67Z" fill="white"/>
<path d="M413.172 207.785L390.288 209.992C388.142 210.199 386.57 212.107 386.777 214.253C386.984 216.399 388.892 217.971 391.038 217.764L413.922 215.557C416.068 215.35 417.64 213.442 417.433 211.296C417.226 209.15 415.318 207.578 413.172 207.785Z" fill="#F8FCFF"/>
<path d="M413.434 362.783L422.66 337.467L435.464 342.706L426.133 366.154L413.434 362.783Z" fill="#578DFF"/>
<path d="M433.885 342.98L426.018 365.448C425.723 366.292 426.27 367.197 427.155 367.325L450.748 370.755C455.986 371.516 461.316 370.254 465.656 367.223L466.228 366.823C469.08 364.831 469.717 360.87 467.633 358.082L466.464 356.516C463.957 353.162 460.501 350.64 456.544 349.279L435.686 342.106C434.947 341.852 434.143 342.243 433.885 342.98Z" fill="#FFB84C"/>
<path d="M426.531 363.86L448.481 367.468C449.861 367.695 451.203 366.886 451.646 365.559L454.67 356.515C455.173 355.011 454.352 353.386 452.842 352.899L432.659 346.387L426.531 363.86Z" fill="#FF9F3B"/>
<path d="M426.849 352.125C427.79 349.168 430.96 347.542 433.91 348.503L448.358 353.209C451.307 354.17 452.911 357.348 451.932 360.292L451.502 361.586C450.62 364.239 447.913 365.833 445.165 365.318L430.135 362.502C426.832 361.883 424.817 358.512 425.836 355.31L426.849 352.125Z" fill="#FF7B1C"/>
<path d="M324.465 314.109C329.737 303.556 342.315 298.931 353.168 303.555L420.533 332.258C425.264 334.274 427.469 339.741 425.459 344.475L419.451 358.63C417.642 362.892 412.978 365.18 408.5 364.002L338.748 345.655C325.056 342.053 318.138 326.774 324.465 314.109Z" fill="#261B65"/>
<path d="M398.753 270.925C399.307 265.976 403.866 262.48 408.789 263.229L434.979 267.211C439.902 267.959 443.216 272.652 442.274 277.542L436.796 305.991C435.905 310.617 431.52 313.713 426.863 313.005L402.927 309.366C398.27 308.658 395.003 304.398 395.528 299.716L398.753 270.925Z" fill="#F8FCFF"/>
<path fill-rule="evenodd" clip-rule="evenodd" d="M408.843 263.175C403.894 262.422 399.313 265.936 398.755 270.91L398.504 273.156C399.764 269.069 403.864 266.38 408.254 267.047L434.577 271.05C438.969 271.717 442.087 275.507 442.071 279.788L442.5 277.562C443.446 272.646 440.116 267.93 435.167 267.177L408.843 263.175Z" fill="white"/>
<path d="M417.893 290.738C421.246 291.248 424.377 288.943 424.887 285.59C425.397 282.237 423.092 279.106 419.739 278.596C416.386 278.086 413.255 280.391 412.745 283.744C412.235 287.097 414.54 290.228 417.893 290.738Z" fill="#E2F0FA"/>
<path d="M333.809 267.588L366.174 223.024C370.874 216.553 379.748 214.761 386.591 218.9C393.83 223.279 396.177 232.68 391.845 239.947L365.254 284.56L333.809 267.588Z" fill="#FF566A"/>
<path d="M383.257 299.036L344.862 296.276C329.459 295.169 323.382 275.764 335.403 266.07L389.113 282.77L383.257 299.036Z" fill="#FF566A"/>
<path d="M402.888 282.612C397.78 284.543 391.736 286.868 391.363 287.169L386.605 298.437L396.291 303.501C399.757 305.313 403.705 305.988 407.577 305.432L411.145 304.92C412.19 304.77 413.149 304.259 413.857 303.475C415.721 301.411 415.296 298.169 412.963 296.654L401.984 290.338L403.388 289.41C405.226 288.195 407.544 286.599 406.852 284.507C406.309 282.863 404.508 282 402.888 282.612Z" fill="#578DFF"/>
<path d="M392.561 282.046C393.556 282.313 394.146 283.335 393.879 284.329L389.707 299.899C389.441 300.894 388.419 301.484 387.424 301.217L383.484 300.162C382.489 299.895 381.899 298.873 382.166 297.879L386.338 282.308C386.604 281.314 387.626 280.724 388.621 280.99L392.561 282.046Z" fill="#F14358"/>
<path d="M864.75 413.836H869.41" stroke="#AFCCE4" stroke-linecap="round" stroke-linejoin="round"/>
<path d="M871.738 413.836H873.138" stroke="#AFCCE4" stroke-linecap="round" stroke-linejoin="round"/>
</svg>
