<svg width="17" height="17" viewBox="0 0 17 17" fill="none" xmlns="http://www.w3.org/2000/svg">
<path d="M16.2398 0.000307829C16.2122 0.00117791 16.1848 0.00358672 16.1575 0.00752294H11.8212C11.7233 0.00613834 11.6261 0.0242258 11.5353 0.060734C11.4444 0.0972423 11.3617 0.151443 11.292 0.220187C11.2223 0.288931 11.1669 0.370846 11.1291 0.461173C11.0913 0.5515 11.0719 0.648437 11.0719 0.74635C11.0719 0.844264 11.0913 0.9412 11.1291 1.03153C11.1669 1.12185 11.2223 1.20377 11.292 1.27251C11.3617 1.34126 11.4444 1.39546 11.5353 1.43197C11.6261 1.46847 11.7233 1.48656 11.8212 1.48518H14.4706L6.8659 9.0899C6.79499 9.15798 6.73838 9.23953 6.69938 9.32976C6.66038 9.41999 6.63978 9.5171 6.63878 9.61539C6.63778 9.71369 6.6564 9.81119 6.69355 9.9022C6.73071 9.99321 6.78565 10.0759 6.85516 10.1454C6.92467 10.2149 7.00734 10.2698 7.09835 10.307C7.18936 10.3442 7.28687 10.3628 7.38516 10.3618C7.48345 10.3608 7.58056 10.3402 7.67079 10.3012C7.76102 10.2622 7.84257 10.2056 7.91065 10.1347L15.5154 2.52993V5.17932C15.514 5.27722 15.5321 5.37442 15.5686 5.46527C15.6051 5.55613 15.6593 5.63882 15.728 5.70854C15.7968 5.77826 15.8787 5.83363 15.969 5.87142C16.0594 5.9092 16.1563 5.92866 16.2542 5.92866C16.3521 5.92866 16.4491 5.9092 16.5394 5.87142C16.6297 5.83363 16.7116 5.77826 16.7804 5.70854C16.8491 5.63882 16.9033 5.55613 16.9398 5.46527C16.9763 5.37442 16.9944 5.27722 16.993 5.17932V0.840147C17.0077 0.733774 16.9991 0.625473 16.9677 0.522784C16.9363 0.420094 16.8829 0.325485 16.8112 0.245543C16.7395 0.165601 16.6512 0.102249 16.5525 0.0598959C16.4538 0.0175432 16.3471 -0.00279142 16.2398 0.000307829ZM1.47765 2.96283C0.67007 2.96283 0 3.6329 0 4.44049V15.5229C0 16.3305 0.67007 17.0006 1.47765 17.0006H12.5601C13.3677 17.0006 14.0377 16.3305 14.0377 15.5229V8.13462V6.22984L12.5601 7.70749V9.61228V15.5229H1.47765V4.44049H7.38827H8.86593H9.29306L10.7707 2.96283H8.86593H7.38827H1.47765Z" fill="#049DD9"/>
</svg>
