<svg width="40" height="32" viewBox="0 0 40 32" fill="none" xmlns="http://www.w3.org/2000/svg">
<rect x="1" y="1" width="38" height="30" rx="3" stroke="#151A34" stroke-width="2"/>
<path d="M33.5 24.5C34.3284 23.6716 34.3284 22.3284 33.5 21.5C32.6716 20.6716 31.3284 20.6716 30.5 21.5C29.6716 22.3284 29.6716 23.6716 30.5 24.5C31.3284 25.3284 32.6716 25.3284 33.5 24.5Z" fill="#009AD7"/>
<path d="M33.5 17.5C34.3284 16.6716 34.3284 15.3284 33.5 14.5C32.6716 13.6716 31.3284 13.6716 30.5 14.5C29.6716 15.3284 29.6716 16.6716 30.5 17.5C31.3284 18.3284 32.6716 18.3284 33.5 17.5Z" fill="#009AD7"/>
<path d="M33.5 10.5C34.3284 9.67157 34.3284 8.32843 33.5 7.5C32.6716 6.67157 31.3284 6.67157 30.5 7.5C29.6716 8.32843 29.6716 9.67157 30.5 10.5C31.3284 11.3284 32.6716 11.3284 33.5 10.5Z" fill="#009AD7"/>
<rect x="5" y="8" width="20" height="2" rx="1" fill="#151A34"/>
<rect x="5" y="15" width="15" height="2" rx="1" fill="#151A34"/>
<rect x="5" y="22" width="20" height="2" rx="1" fill="#151A34"/>
</svg>
