<svg width="144" height="24" viewBox="0 0 144 24" fill="none" xmlns="http://www.w3.org/2000/svg">
<path fill-rule="evenodd" clip-rule="evenodd" d="M41.8162 6.75247L40.7351 10.9788H48.2814L47.0807 15.6995H39.5344L37.4917 23.7068H31.7383L37.307 1.99918H52.1278L50.9272 6.75247H41.8162Z" fill="#151A34"/>
<path fill-rule="evenodd" clip-rule="evenodd" d="M91.0262 15.6668C91.6075 13.2603 90.7056 11.6795 88.8313 11.6795C86.9298 11.6795 85.289 13.2657 84.7023 15.6668C84.121 18.0407 84.9902 19.6541 86.8972 19.6541C88.7715 19.6596 90.4503 18.0462 91.0262 15.6668ZM85.8595 24C80.5027 23.9946 77.7482 20.6537 78.9706 15.6722C80.1984 10.6582 84.5719 7.34445 89.9179 7.34445C95.2041 7.34445 97.9694 10.6582 96.7687 15.6722C95.5735 20.6537 91.2 23.9946 85.8975 24H85.8595Z" fill="#151A34"/>
<path fill-rule="evenodd" clip-rule="evenodd" d="M52.621 9.08822L48.9375 23.7066H54.5117L58.5755 7.47482L52.621 9.08822Z" fill="#151A34"/>
<path fill-rule="evenodd" clip-rule="evenodd" d="M72.5502 7.33905C70.8878 7.33905 68.8939 7.83883 66.9163 8.74603L62.0974 7.45313L58.0391 23.7012H63.6132L66.4002 12.4672C67.3455 11.9674 68.2039 11.6741 69.1981 11.6741C70.953 11.6741 71.6049 12.4672 71.1648 14.2544L68.8341 23.7012H74.4083L76.8367 13.8144C77.945 9.27296 76.2554 7.33905 72.5502 7.33905Z" fill="#151A34"/>
<path fill-rule="evenodd" clip-rule="evenodd" d="M102.734 2.05872L108.661 0.445312L103.125 23.7066H97.5508L102.734 2.05872Z" fill="#009AD7"/>
<path fill-rule="evenodd" clip-rule="evenodd" d="M116.383 19.7465C115.78 19.9529 115.193 20.067 114.639 20.067C113.172 20.067 112.487 19.627 112.71 18.6872C112.944 17.6876 113.851 17.1933 115.318 17.1933C115.818 17.1933 116.345 17.3074 116.904 17.5464L116.383 19.7465ZM111.379 24H111.439C113.188 23.9946 114.997 23.5817 116.595 22.8538L120.99 23.8805L123.44 13.3798C124.331 9.5663 122.163 7.33905 117.605 7.33905C115.095 7.33905 112.52 7.71931 110.678 8.3386L109.722 12.3857C111.613 11.9457 113.808 11.6795 115.443 11.6795C117.225 11.6795 118.094 12.4726 117.768 13.847L117.681 14.2272C116.692 13.8144 115.655 13.6406 114.72 13.6406C110.51 13.6406 107.728 15.4875 106.94 18.8013C106.147 22.1476 107.755 23.9946 111.379 24Z" fill="#009AD7"/>
<path fill-rule="evenodd" clip-rule="evenodd" d="M133.448 19.6595C132.654 19.6595 131.801 19.4259 131.024 18.9859L132.573 12.2987C133.42 11.9184 134.262 11.6848 134.936 11.6848C137.185 11.6848 138.315 13.2711 137.761 15.6722C137.218 18.0461 135.588 19.6595 133.448 19.6595ZM133.844 23.9999H133.898C138.527 23.9945 142.357 20.6808 143.493 15.6993C143.672 14.9171 143.759 14.1728 143.77 13.4775C143.808 9.72375 141.401 7.33895 137.31 7.33895C136.082 7.33895 134.789 7.6323 133.529 8.15924L135.311 0.445312L129.395 2.05872L124.32 23.8804L129.324 22.794C130.514 23.5545 132.16 23.9945 133.844 23.9999Z" fill="#009AD7"/>
<path fill-rule="evenodd" clip-rule="evenodd" d="M19.6414 0L7.68359 3.4115L12.2798 7.88231L18.093 6.22545L22.2329 10.2019L20.8203 15.8135L15.0017 17.4704L13.4587 23.6958L25.4274 20.2843L28.4155 8.43098L19.6414 0Z" fill="#009AD7"/>
<path fill-rule="evenodd" clip-rule="evenodd" d="M0 10.077L5.85121 8.51791L10.8495 13.5211L8.96968 20.3658L3.11304 21.9086L5.03084 15.053L0 10.077Z" fill="#009AD7"/>
</svg>
