<svg width="46" height="41" viewBox="0 0 46 41" fill="none" xmlns="http://www.w3.org/2000/svg">
<path d="M2.72727 0.770874C1.23224 0.770874 0 2.00312 0 3.49815V40.7709H45.4545V3.49815C45.4545 2.00312 44.2223 0.770874 42.7273 0.770874H2.72727ZM2.72727 2.58906H42.7273C43.2422 2.58906 43.6364 2.98323 43.6364 3.49815V6.22542H1.81818V3.49815C1.81818 2.98323 2.21236 2.58906 2.72727 2.58906ZM1.81818 8.0436H43.6364V38.9527H1.81818V8.0436Z" fill="#151A34"/>
<path d="M26.2777 11.6515C26.2386 11.6586 26.1996 11.6693 26.1641 11.6799C25.8658 11.7474 25.6172 11.9605 25.5107 12.2481L17.3288 32.2481C17.1406 32.7204 17.3679 33.2531 17.8402 33.4413C18.3125 33.6295 18.8452 33.4022 19.0334 32.9299L27.2152 12.9299C27.3501 12.6316 27.3146 12.2801 27.1193 12.0173C26.9276 11.751 26.6044 11.6125 26.2777 11.6515ZM14.4879 17.1061C14.4595 17.1132 14.4311 17.1238 14.4027 17.1345C14.2926 17.1522 14.1861 17.1913 14.0902 17.2481L7.72656 20.8845C7.43892 21.0443 7.25781 21.3497 7.25781 21.6799C7.25781 22.0102 7.43892 22.3156 7.72656 22.4754L14.0902 26.1118C14.5305 26.3639 15.0881 26.2112 15.3402 25.7709C15.5923 25.3305 15.4396 24.773 14.9993 24.5209L10.0277 21.6799L14.9993 18.839C15.4254 18.6579 15.6491 18.1892 15.5178 17.7453C15.3864 17.3014 14.9425 17.0244 14.4879 17.1061ZM30.7379 17.1345C30.3509 17.1949 30.0419 17.4967 29.978 17.8838C29.9141 18.2709 30.1058 18.6579 30.4538 18.839L35.4254 21.6799L30.4538 24.5209C30.0135 24.773 29.8608 25.3305 30.1129 25.7709C30.3651 26.2112 30.9226 26.3639 31.3629 26.1118L37.7266 22.4754C38.0142 22.3156 38.1953 22.0102 38.1953 21.6799C38.1953 21.3497 38.0142 21.0443 37.7266 20.8845L31.3629 17.2481C31.1747 17.138 30.9545 17.0954 30.7379 17.1345Z" fill="#009AD7"/>
</svg>
