<svg width="441" height="416" viewBox="0 0 441 416" fill="none" xmlns="http://www.w3.org/2000/svg">
<path fill-rule="evenodd" clip-rule="evenodd" d="M341.871 40.7118C341.871 40.5194 342.027 40.3633 342.22 40.3633H423.086C423.281 40.3633 423.434 40.5194 423.434 40.7118C423.434 40.9042 423.281 41.0604 423.086 41.0604H342.22C342.027 41.0604 341.871 40.9042 341.871 40.7118Z" fill="#AFCCE4"/>
<path fill-rule="evenodd" clip-rule="evenodd" d="M382.376 80.7268C404.476 80.7268 422.391 62.8115 422.391 40.712C422.391 18.6125 404.476 0.697123 382.376 0.697123C360.276 0.697123 342.361 18.6125 342.361 40.712C342.361 62.8115 360.276 80.7268 382.376 80.7268ZM382.376 81.424C404.86 81.424 423.088 63.1963 423.088 40.712C423.088 18.2277 404.86 0 382.376 0C359.891 0 341.664 18.2277 341.664 40.712C341.664 63.1963 359.891 81.424 382.376 81.424Z" fill="#AFCCE4"/>
<path fill-rule="evenodd" clip-rule="evenodd" d="M394.642 1.88232C394.834 1.88232 394.99 2.03848 394.99 2.23089V79.1933C394.99 79.3857 394.834 79.5418 394.642 79.5418C394.448 79.5418 394.293 79.3857 394.293 79.1933V2.23089C394.293 2.03848 394.448 1.88232 394.642 1.88232Z" fill="#AFCCE4"/>
<path fill-rule="evenodd" clip-rule="evenodd" d="M370.099 1.88232C370.292 1.88232 370.447 2.03848 370.447 2.23089V79.1933C370.447 79.3857 370.292 79.5418 370.099 79.5418C369.906 79.5418 369.75 79.3857 369.75 79.1933V2.23089C369.75 2.03848 369.906 1.88232 370.099 1.88232Z" fill="#AFCCE4"/>
<path fill-rule="evenodd" clip-rule="evenodd" d="M80.8672 60.789C80.8672 60.5966 81.0233 60.4404 81.2157 60.4404H109.86C110.052 60.4404 110.208 60.5966 110.208 60.789V83.8637H140.332C140.524 83.8637 140.68 84.0199 140.68 84.2123C140.68 84.4047 140.524 84.5609 140.332 84.5609H109.86C109.667 84.5609 109.511 84.4047 109.511 84.2123V61.1376H81.2157C81.0233 61.1376 80.8672 60.9814 80.8672 60.789Z" fill="#AFCCE4"/>
<path fill-rule="evenodd" clip-rule="evenodd" d="M49.082 37.9238C49.082 37.7314 49.2382 37.5752 49.4306 37.5752H78.0747C78.2671 37.5752 78.4233 37.7314 78.4233 37.9238V60.4408H108.547C108.74 60.4408 108.895 60.597 108.895 60.7894C108.895 60.9818 108.74 61.138 108.547 61.138H78.0747C77.8823 61.138 77.7261 60.9818 77.7261 60.7894V38.2723H49.4306C49.2382 38.2723 49.082 38.1162 49.082 37.9238Z" fill="#AFCCE4"/>
<path fill-rule="evenodd" clip-rule="evenodd" d="M17.2891 14.4999C17.2891 14.3075 17.4452 14.1514 17.6376 14.1514H46.281C46.4741 14.1514 46.6296 14.3075 46.6296 14.4999V37.5747H76.7537C76.9461 37.5747 77.1022 37.7308 77.1022 37.9233C77.1022 38.1157 76.9461 38.2718 76.7537 38.2718H46.281C46.0886 38.2718 45.9325 38.1157 45.9325 37.9233V14.8485H17.6376C17.4452 14.8485 17.2891 14.6923 17.2891 14.4999Z" fill="#AFCCE4"/>
<path fill-rule="evenodd" clip-rule="evenodd" d="M0 331.691C0 331.499 0.156156 331.343 0.348561 331.343H440.651C440.847 331.343 441 331.499 441 331.691C441 331.884 440.847 332.04 440.651 332.04H0.348561C0.156156 332.04 0 331.884 0 331.691Z" fill="#AFCCE4"/>
<path fill-rule="evenodd" clip-rule="evenodd" d="M25.7769 228.73C25.9666 228.76 26.0969 228.938 26.0676 229.128L8.77899 340.11C8.74901 340.301 8.57126 340.43 8.38094 340.401C8.19063 340.371 8.06025 340.193 8.09023 340.003L25.3789 229.021C25.4082 228.831 25.5866 228.7 25.7769 228.73Z" fill="#AFCCE4"/>
<path fill-rule="evenodd" clip-rule="evenodd" d="M32.628 298.741C32.6538 298.55 32.8288 298.416 33.0198 298.441L99.9436 307.364C100.135 307.39 100.268 307.565 100.243 307.756C100.218 307.947 100.042 308.081 99.8516 308.056L32.9278 299.133C32.7368 299.107 32.6029 298.932 32.628 298.741Z" fill="#AFCCE4"/>
<path fill-rule="evenodd" clip-rule="evenodd" d="M92.0551 228.728C92.2461 228.707 92.419 228.844 92.4406 229.035L105.268 341.69C105.29 341.882 105.153 342.055 104.961 342.076C104.77 342.098 104.597 341.961 104.575 341.77L91.7483 229.114C91.7267 228.923 91.8641 228.75 92.0551 228.728Z" fill="#AFCCE4"/>
<path fill-rule="evenodd" clip-rule="evenodd" d="M40.2618 232.632C40.4535 232.652 40.5915 232.824 40.5713 233.016L28.8597 341.767C28.8387 341.958 28.6665 342.097 28.4755 342.076C28.2838 342.056 28.1458 341.884 28.166 341.692L39.8777 232.941C39.8986 232.75 40.0701 232.611 40.2618 232.632Z" fill="#AFCCE4"/>
<path fill-rule="evenodd" clip-rule="evenodd" d="M51.3439 234.305C51.5356 234.287 51.7057 234.428 51.7231 234.62L61.7617 343.371C61.7798 343.563 61.6383 343.733 61.4466 343.75C61.2549 343.768 61.0855 343.627 61.0674 343.435L51.0288 234.684C51.0114 234.492 51.1522 234.323 51.3439 234.305Z" fill="#AFCCE4"/>
<path fill-rule="evenodd" clip-rule="evenodd" d="M100.797 307.638C100.837 307.827 100.716 308.011 100.528 308.051L60.7422 316.417C60.7101 316.424 60.6767 316.426 60.6439 316.424L12.5919 312.799C12.4002 312.784 12.2559 312.617 12.2706 312.424C12.2852 312.233 12.4525 312.089 12.6442 312.103L60.6474 315.724L100.384 307.369C100.572 307.33 100.757 307.45 100.797 307.638Z" fill="#AFCCE4"/>
<path fill-rule="evenodd" clip-rule="evenodd" d="M388.925 117.117H277.664C272.274 117.117 267.904 121.486 267.904 126.876V215.271C267.904 220.662 272.274 225.031 277.664 225.031H388.925C394.315 225.031 398.684 220.662 398.684 215.271V126.876C398.684 121.486 394.315 117.117 388.925 117.117ZM277.664 116.419C271.889 116.419 267.207 121.101 267.207 126.876V215.271C267.207 221.046 271.889 225.728 277.664 225.728H388.925C394.7 225.728 399.382 221.046 399.382 215.271V126.876C399.382 121.101 394.7 116.419 388.925 116.419H277.664Z" fill="#AFCCE4"/>
<path fill-rule="evenodd" clip-rule="evenodd" d="M214.823 342.427H174.265C171.991 342.427 169.894 343.658 168.786 345.644L147.006 384.683C144.673 388.865 147.697 394.014 152.485 394.014H223.863C227.9 394.014 230.886 390.257 229.976 386.324L220.935 347.286C220.277 344.441 217.743 342.427 214.823 342.427ZM174.265 341.729C171.738 341.729 169.408 343.097 168.177 345.304L146.397 384.343C143.805 388.99 147.164 394.711 152.485 394.711H223.863C228.349 394.711 231.667 390.536 230.655 386.167L221.615 347.128C220.883 343.967 218.067 341.729 214.823 341.729H174.265Z" fill="#AFCCE4"/>
<path fill-rule="evenodd" clip-rule="evenodd" d="M229.495 363.062H122.373C120.674 363.062 119.049 363.751 117.866 364.971L80.3577 403.703C76.4642 407.723 79.3837 414.443 84.9795 414.341L253.779 411.259C258.759 411.168 261.652 405.588 258.857 401.465L234.687 365.816C233.52 364.093 231.575 363.062 229.495 363.062ZM122.373 362.365C120.486 362.365 118.679 363.13 117.366 364.486L79.8571 403.218C75.5315 407.685 78.7752 415.152 84.9921 415.038L253.791 411.956C259.325 411.855 262.54 405.655 259.434 401.074L235.265 365.424C233.967 363.511 231.806 362.365 229.495 362.365H122.373Z" fill="#AFCCE4"/>
<path d="M284.522 95.335L335.977 112.97L327.156 141.323L271.5 126.621L284.522 95.335Z" fill="#120A3E"/>
<path d="M304.897 124.521H332.411L294.606 246.123L276.125 241.293L304.897 124.521Z" fill="#120A3E"/>
<path d="M296.191 58.5185C298.393 49.0147 308.501 43.6628 317.599 47.1847L340.957 56.2257C348.536 59.1592 352.275 67.7031 349.287 75.2607L331.97 119.066C331.317 120.719 329.525 121.615 327.811 121.147L287.659 110.193C285.852 109.7 284.757 107.868 285.181 106.044L296.191 58.5185Z" fill="#F8FCFF"/>
<path opacity="0.9" d="M323.82 39.7383L334.666 42.3462V53.6647L336.799 54.5145C336.727 54.5633 336.645 54.6191 336.555 54.6818C334.756 55.9255 329.433 59.6063 321.945 56.5048C316.988 53.4249 318.474 49.1578 318.907 47.53C318.933 47.4366 318.955 47.3516 318.974 47.2763L321.35 48.3617L323.82 39.7383Z" fill="#F9C799"/>
<path d="M319.969 47.6948L321.121 48.1556L323.409 40.9781L323.548 40.6602L328.988 41.0554L334.951 42.4253L334.734 47.1866C331.246 50.3313 326.032 51.6824 321.817 50.2003C321.103 49.9493 320.378 49.8866 319.738 49.5387L319.969 47.6948Z" fill="#F19C5C"/>
<path d="M319.329 32.0649C319.182 29.8418 320.864 27.9205 323.087 27.7727L332.283 27.1614C334.506 27.0136 336.427 28.6957 336.575 30.9189L336.895 35.745C337.043 37.9675 335.361 39.8895 333.139 40.0372L323.942 40.6479C321.719 40.7957 319.798 39.1136 319.65 36.8911L319.329 32.0649Z" fill="#102054"/>
<path d="M334.327 35.6023C334.07 31.4934 330.53 28.3717 326.421 28.6296C322.312 28.8876 319.191 32.4269 319.448 36.5357L319.814 42.3706C320.072 46.4795 323.612 49.6012 327.721 49.3433C331.829 49.0853 334.951 45.5453 334.694 41.4372L334.327 35.6023Z" fill="#F9C799"/>
<path d="M326.008 40.2735C326.39 40.3242 326.74 40.0557 326.791 39.6739C326.842 39.292 326.573 38.9413 326.191 38.8906C325.81 38.8399 325.459 39.1084 325.408 39.4903C325.357 39.8721 325.626 40.2228 326.008 40.2735Z" fill="black"/>
<path d="M321.082 40.3223C321.464 40.373 321.815 40.1046 321.865 39.7227C321.916 39.3408 321.648 38.9902 321.266 38.9395C320.884 38.8888 320.533 39.1572 320.482 39.5391C320.432 39.921 320.7 40.2716 321.082 40.3223Z" fill="black"/>
<path d="M321.682 43.6573C320.919 43.1944 322.35 41.1128 323.161 40.1299L323.961 43.1024C324.068 43.5012 323.809 43.9013 323.4 43.9194C322.842 43.9452 322.11 43.9174 321.682 43.6573Z" fill="#F19C5C"/>
<path fill-rule="evenodd" clip-rule="evenodd" d="M322.139 36.4318C321.654 36.3007 321.131 36.3927 320.717 36.6821L320.603 36.7615C320.366 36.9274 320.04 36.8738 319.875 36.6423C319.71 36.4109 319.769 36.0888 320.006 35.9229L320.12 35.8434C320.793 35.3736 321.64 35.2244 322.427 35.437L322.511 35.4593C322.788 35.5346 322.949 35.8176 322.869 36.093C322.79 36.3676 322.5 36.5294 322.222 36.4541L322.139 36.4318ZM324.25 35.9494C324.18 35.674 324.351 35.3924 324.632 35.3206L324.846 35.2655C326.017 34.9657 327.256 35.1993 328.22 35.9027L328.329 35.9828C328.56 36.1509 328.607 36.4736 328.432 36.7037C328.259 36.933 327.93 36.9825 327.7 36.8145L327.59 36.7343C326.878 36.215 325.962 36.0421 325.096 36.2638L324.883 36.3182C324.602 36.3907 324.319 36.2254 324.25 35.9494Z" fill="#102054"/>
<path d="M323.637 44.8843L326.402 45.2516C325.865 47.0565 323.685 46.7672 323.637 44.8843Z" fill="white"/>
<path opacity="0.9" d="M334.862 43.3742C333.464 43.4021 332.307 42.2911 332.28 40.8928C332.252 39.4944 333.363 38.3382 334.761 38.3103C336.159 38.2824 337.316 39.3934 337.343 40.7917C337.371 42.1901 336.26 43.3463 334.862 43.3742Z" fill="#F9C799"/>
<path d="M334.695 42.3238C333.996 42.3378 333.417 41.7823 333.403 41.0831C333.39 40.3839 333.945 39.8058 334.644 39.7919C335.343 39.7779 335.921 40.3334 335.935 41.0326C335.949 41.7318 335.394 42.3099 334.695 42.3238Z" fill="#F19C5C"/>
<path d="M326.424 28.6296C330.532 28.3717 334.072 31.4934 334.33 35.6023L334.458 37.6434L332.263 34.4276C331.921 33.925 331.379 33.5939 330.775 33.5186L319.559 34.5029C319.418 34.4855 320.055 32.9818 320.473 32.2756C321.688 30.224 323.864 28.79 326.424 28.6296Z" fill="#102054"/>
<path fill-rule="evenodd" clip-rule="evenodd" d="M316.016 46.2751C316.243 46.2828 316.419 46.4738 316.41 46.7024L316.705 77.0921L337.653 55.3614C337.776 55.169 338.03 55.1132 338.221 55.2359C338.41 55.3593 338.464 55.6151 338.34 55.8075L316.578 78.8056C316.477 78.9625 316.286 79.0329 316.109 78.9778C315.934 78.9227 315.817 78.7554 315.825 78.5693L315.59 46.6753C315.6 46.4466 315.791 46.2681 316.016 46.2751Z" fill="#FF566A"/>
<path d="M320.496 74.533L316.344 72.8247C315.276 72.3851 314.054 72.8947 313.614 73.9628L309.706 83.4605C309.266 84.5286 309.776 85.7508 310.844 86.1903L314.995 87.8987C316.064 88.3382 317.286 87.8287 317.725 86.7605L321.634 77.2629C322.073 76.1948 321.564 74.9726 320.496 74.533Z" fill="#FFB84C"/>
<path d="M281.152 108.74L296.45 112.515L312.376 67.42L318.239 46.9859L317.617 46.767C308.095 43.4167 297.728 48.8312 295.036 58.5596L281.152 108.74Z" fill="#FF566A"/>
<path d="M333.81 125.9L320.914 122.102C315.85 120.611 312.89 115.361 314.234 110.256L322.058 80.5275C322.85 77.5216 324.138 74.6689 325.87 72.0875L337.475 54.7939L350.302 60.7139L333.81 125.9Z" fill="#FF566A"/>
<path d="M321.303 86.8616L333.293 71.8037L339.986 101.919L336.361 115.722L314.75 108.403L321.303 86.8616Z" fill="#EC3D52"/>
<path d="M130.57 20.9139C130.57 15.1389 135.252 10.457 141.027 10.457H300.808C306.583 10.457 311.265 15.1389 311.265 20.9139V321.234C311.265 327.009 306.583 331.691 300.808 331.691H141.027C135.252 331.691 130.57 327.009 130.57 321.234V20.9139Z" fill="#E2F0FA"/>
<path d="M145.352 167.041C145.352 164.495 147.435 162.43 150.006 162.43H291.973C294.544 162.43 296.627 164.495 296.627 167.041V187.795C296.627 190.341 294.544 192.406 291.973 192.406H150.006C147.435 192.406 145.352 190.341 145.352 187.795V167.041Z" fill="#D4E8F5"/>
<path fill-rule="evenodd" clip-rule="evenodd" d="M311.405 33.4619H130.711V20.2166C130.711 14.4416 135.393 9.75977 141.168 9.75977H300.948C306.723 9.75977 311.405 14.4416 311.405 20.2166V33.4619Z" fill="#0F3E9F"/>
<path d="M145.352 113.631C145.352 109.781 148.473 106.66 152.323 106.66H171.945C175.796 106.66 178.917 109.781 178.917 113.631V146.679C178.917 150.53 175.796 153.651 171.945 153.651H152.323C148.473 153.651 145.352 150.53 145.352 146.679V113.631Z" fill="#D4E8F5"/>
<path d="M184.461 113.631C184.461 109.781 187.582 106.66 191.432 106.66H211.054C214.904 106.66 218.025 109.781 218.025 113.631V146.679C218.025 150.53 214.904 153.651 211.054 153.651H191.432C187.582 153.651 184.461 150.53 184.461 146.679V113.631Z" fill="#D4E8F5"/>
<path d="M223.93 113.631C223.93 109.781 227.051 106.66 230.901 106.66H250.524C254.373 106.66 257.495 109.781 257.495 113.631V146.679C257.495 150.53 254.373 153.651 250.524 153.651H230.901C227.051 153.651 223.93 150.53 223.93 146.679V113.631Z" fill="#D4E8F5"/>
<path d="M207.676 131.415C207.676 134.905 204.847 137.734 201.358 137.734C197.868 137.734 195.039 134.905 195.039 131.415C195.039 127.926 197.868 125.097 201.358 125.097C204.847 125.097 207.676 127.926 207.676 131.415Z" fill="#AFCCE4"/>
<path d="M201.351 127.467C200.662 127.467 200.104 128.025 200.104 128.714V130.169H198.649C197.961 130.169 197.402 130.727 197.402 131.415C197.402 132.104 197.961 132.662 198.649 132.662H200.104V134.117C200.104 134.806 200.662 135.365 201.351 135.365C202.04 135.365 202.598 134.806 202.598 134.117V132.662H204.053C204.742 132.662 205.3 132.104 205.3 131.415C205.3 130.727 204.742 130.169 204.053 130.169H202.598V128.714C202.598 128.025 202.04 127.467 201.351 127.467Z" fill="#D4E8F5"/>
<path d="M247.159 131.415C247.159 134.905 244.331 137.734 240.841 137.734C237.352 137.734 234.523 134.905 234.523 131.415C234.523 127.926 237.352 125.097 240.841 125.097C244.331 125.097 247.159 127.926 247.159 131.415Z" fill="#AFCCE4"/>
<path d="M240.836 127.467C240.147 127.467 239.589 128.025 239.589 128.714V130.169H238.134C237.445 130.169 236.887 130.727 236.887 131.415C236.887 132.104 237.445 132.662 238.134 132.662H239.589V134.117C239.589 134.806 240.147 135.365 240.836 135.365C241.525 135.365 242.083 134.806 242.083 134.117V132.662H243.538C244.227 132.662 244.784 132.104 244.784 131.415C244.784 130.727 244.227 130.169 243.538 130.169H242.083V128.714C242.083 128.025 241.525 127.467 240.836 127.467Z" fill="#D4E8F5"/>
<path d="M263.352 113.904C263.352 110.054 266.473 106.933 270.323 106.933H289.945C293.795 106.933 296.916 110.054 296.916 113.904V146.953C296.916 150.803 293.795 153.924 289.945 153.924H270.323C266.473 153.924 263.352 150.803 263.352 146.953V113.904Z" fill="#D4E8F5"/>
<path d="M286.648 131.415C286.648 134.905 283.82 137.734 280.33 137.734C276.841 137.734 274.012 134.905 274.012 131.415C274.012 127.926 276.841 125.097 280.33 125.097C283.82 125.097 286.648 127.926 286.648 131.415Z" fill="#AFCCE4"/>
<path d="M280.335 127.467C279.646 127.467 279.089 128.025 279.089 128.714V130.169H277.634C276.945 130.169 276.387 130.727 276.387 131.415C276.387 132.104 276.945 132.662 277.634 132.662H279.089V134.117C279.089 134.806 279.646 135.365 280.335 135.365C281.024 135.365 281.582 134.806 281.582 134.117V132.662H283.037C283.726 132.662 284.284 132.104 284.284 131.415C284.284 130.727 283.726 130.169 283.037 130.169H281.582V128.714C281.582 128.025 281.024 127.467 280.335 127.467Z" fill="#D4E8F5"/>
<path d="M168.574 131.415C168.574 134.905 165.745 137.734 162.256 137.734C158.766 137.734 155.938 134.905 155.938 131.415C155.938 127.926 158.766 125.097 162.256 125.097C165.745 125.097 168.574 127.926 168.574 131.415Z" fill="#AFCCE4"/>
<path d="M162.261 127.467C161.572 127.467 161.014 128.025 161.014 128.714V130.169H159.56C158.871 130.169 158.312 130.727 158.312 131.415C158.312 132.104 158.871 132.662 159.56 132.662H161.014V134.117C161.014 134.806 161.572 135.365 162.261 135.365C162.95 135.365 163.508 134.806 163.508 134.117V132.662H164.963C165.652 132.662 166.21 132.104 166.21 131.415C166.21 130.727 165.652 130.169 164.963 130.169H163.508V128.714C163.508 128.025 162.95 127.467 162.261 127.467Z" fill="#D4E8F5"/>
<path d="M196.937 202.166H151.624C147.773 202.166 144.652 205.287 144.652 209.137V281.638C144.652 285.488 147.773 288.609 151.624 288.609H196.937C200.787 288.609 203.908 285.488 203.908 281.638V209.137C203.908 205.287 200.787 202.166 196.937 202.166Z" fill="#D4E8F5"/>
<path d="M193.588 229.074C193.588 239.238 185.224 247.478 174.906 247.478C164.587 247.478 156.223 239.238 156.223 229.074C156.223 218.91 164.587 210.67 174.906 210.67C185.224 210.67 193.588 218.91 193.588 229.074Z" fill="#AFCCE4"/>
<path fill-rule="evenodd" clip-rule="evenodd" d="M155.531 260.306C155.531 258.381 157.091 256.82 159.017 256.82H190.248C192.173 256.82 193.734 258.381 193.734 260.306C193.734 262.231 192.173 263.792 190.248 263.792H159.017C157.091 263.792 155.531 262.231 155.531 260.306Z" fill="#AFCCE4"/>
<path fill-rule="evenodd" clip-rule="evenodd" d="M160.551 271.181C160.551 269.256 162.111 267.695 164.036 267.695H184.671C186.596 267.695 188.157 269.256 188.157 271.181C188.157 273.106 186.596 274.667 184.671 274.667H164.036C162.111 274.667 160.551 273.106 160.551 271.181Z" fill="#AFCCE4"/>
<path d="M172.956 82.4001C172.956 90.7161 166.214 97.458 157.898 97.458C149.582 97.458 142.84 90.7161 142.84 82.4001C142.84 74.0842 149.582 67.3423 157.898 67.3423C166.214 67.3423 172.956 74.0842 172.956 82.4001Z" fill="#AFCCE4"/>
<path fill-rule="evenodd" clip-rule="evenodd" d="M184.391 76.9622C184.391 75.0374 185.951 73.4766 187.876 73.4766H219.107C221.032 73.4766 222.593 75.0374 222.593 76.9622C222.593 78.8869 221.032 80.4478 219.107 80.4478H187.876C185.951 80.4478 184.391 78.8869 184.391 76.9622Z" fill="#AFCCE4"/>
<path fill-rule="evenodd" clip-rule="evenodd" d="M184.391 87.8377C184.391 85.9129 185.951 84.3521 187.876 84.3521H208.511C210.436 84.3521 211.997 85.9129 211.997 87.8377C211.997 89.7624 210.436 91.3233 208.511 91.3233H187.876C185.951 91.3233 184.391 89.7624 184.391 87.8377Z" fill="#AFCCE4"/>
<path d="M145.074 49.2168C145.074 45.3666 148.195 42.2456 152.045 42.2456H289.239C293.089 42.2456 296.211 45.3666 296.211 49.2168C296.211 53.067 293.089 56.1881 289.239 56.1881H152.045C148.195 56.1881 145.074 53.067 145.074 49.2168Z" fill="#F8FCFF"/>
<path d="M203.07 21.8894C203.07 18.9636 205.413 16.5913 208.304 16.5913H234.087C236.978 16.5913 239.321 18.9636 239.321 21.8894C239.321 24.8153 236.978 27.1876 234.087 27.1876H208.304C205.413 27.1876 203.07 24.8153 203.07 21.8894Z" fill="#FF566A"/>
<path d="M291.75 49.2168C291.75 51.219 290.126 52.8419 288.125 52.8419C286.123 52.8419 284.5 51.219 284.5 49.2168C284.5 47.2147 286.123 45.5918 288.125 45.5918C290.126 45.5918 291.75 47.2147 291.75 49.2168Z" fill="#D4E8F5"/>
<path fill-rule="evenodd" clip-rule="evenodd" d="M161.805 22.1683C161.805 20.9365 162.908 19.9375 164.27 19.9375H190.57C191.932 19.9375 193.036 20.9365 193.036 22.1683C193.036 23.4001 191.932 24.3991 190.57 24.3991H164.27C162.908 24.3991 161.805 23.4001 161.805 22.1683Z" fill="white" fill-opacity="0.3"/>
<path fill-rule="evenodd" clip-rule="evenodd" d="M249.359 22.1683C249.359 20.9365 250.443 19.9375 251.781 19.9375H277.612C278.949 19.9375 280.033 20.9365 280.033 22.1683C280.033 23.4001 278.949 24.3991 277.612 24.3991H251.781C250.443 24.3991 249.359 23.4001 249.359 22.1683Z" fill="white" fill-opacity="0.3"/>
<path d="M265.952 200.771H220.639C216.789 200.771 213.668 203.893 213.668 207.743V280.244C213.668 284.094 216.789 287.215 220.639 287.215H265.952C269.802 287.215 272.923 284.094 272.923 280.244V207.743C272.923 203.893 269.802 200.771 265.952 200.771Z" fill="#D4E8F5"/>
<path d="M3.75947 201.068C-0.0489094 187.711 9.98198 174.42 23.8722 174.42H41.3156C50.5141 174.42 58.6335 180.431 61.3181 189.229L65.779 203.844C69.5979 216.357 61.1194 229.265 48.1181 230.731L30.934 232.667C20.7776 233.813 11.2814 227.449 8.47899 217.62L3.75947 201.068Z" fill="white"/>
<path fill-rule="evenodd" clip-rule="evenodd" d="M23.8722 175.117C10.4449 175.117 0.748582 187.964 4.43009 200.877L9.14962 217.429C11.8586 226.93 21.0377 233.081 30.8559 231.975L48.04 230.038C60.6077 228.621 68.8038 216.143 65.1119 204.048L60.6517 189.432C58.0563 180.928 50.2081 175.117 41.3156 175.117H23.8722ZM23.8722 174.42C9.98198 174.42 -0.0489094 187.711 3.75947 201.068L8.47899 217.62C11.2814 227.449 20.7776 233.813 30.934 232.667L48.1181 230.731C61.1194 229.265 69.5979 216.357 65.779 203.844L61.3181 189.229C58.6335 180.431 50.5141 174.42 41.3156 174.42H23.8722Z" fill="#AFCCE4"/>
<path d="M58.3468 216.347C54.735 207.197 61.4782 197.286 71.3153 197.286H97.5293C107.154 197.286 114.957 205.089 114.957 214.714V218.339C114.957 227.964 107.154 235.767 97.5293 235.767H66.0123L58.3468 216.347Z" fill="white"/>
<path fill-rule="evenodd" clip-rule="evenodd" d="M97.5293 197.983H71.3153C61.9704 197.983 55.5638 207.399 58.9951 216.091L66.4864 235.07H97.5293C106.77 235.07 114.26 227.579 114.26 218.339V214.714C114.26 205.473 106.77 197.983 97.5293 197.983ZM66.0123 235.767H97.5293C107.154 235.767 114.957 227.964 114.957 218.339V214.714C114.957 205.089 107.154 197.286 97.5293 197.286H71.3153C61.4782 197.286 54.735 207.197 58.3468 216.347L66.0123 235.767Z" fill="#AFCCE4"/>
<path d="M39.6641 226.565C39.6641 221.483 43.7841 217.363 48.8661 217.363H85.1165C90.1992 217.363 94.3185 221.483 94.3185 226.565C94.3185 231.647 90.1992 235.767 85.1165 235.767H48.8661C43.7841 235.767 39.6641 231.647 39.6641 226.565Z" fill="white"/>
<path fill-rule="evenodd" clip-rule="evenodd" d="M85.1165 218.06H48.8661C44.1696 218.06 40.3612 221.868 40.3612 226.565C40.3612 231.262 44.1696 235.07 48.8661 235.07H85.1165C89.8137 235.07 93.6214 231.262 93.6214 226.565C93.6214 221.868 89.8137 218.06 85.1165 218.06ZM48.8661 217.363C43.7841 217.363 39.6641 221.483 39.6641 226.565C39.6641 231.647 43.7841 235.767 48.8661 235.767H85.1165C90.1992 235.767 94.3185 231.647 94.3185 226.565C94.3185 221.483 90.1992 217.363 85.1165 217.363H48.8661Z" fill="#AFCCE4"/>
<path d="M253.407 68.5752C254.78 62.9662 260.442 59.5322 266.051 60.9062L281.104 64.5926C286.713 65.9666 290.147 71.6272 288.773 77.237L285.54 90.4391C284.167 96.0481 278.506 99.4822 272.896 98.1081L257.843 94.4218C252.234 93.0484 248.8 87.3871 250.174 81.7781L253.407 68.5752Z" fill="#F8FCFF"/>
<path d="M259.919 76.9093C259.456 78.8013 259.565 80.7888 260.23 82.6195C260.896 84.4501 262.09 86.0424 263.661 87.1947C265.231 88.347 267.109 89.0072 269.055 89.093C271.002 89.178 272.929 88.6845 274.595 87.6736C276.261 86.6635 277.589 85.1821 278.413 83.4163C279.237 81.6512 279.518 79.6811 279.222 77.7556C278.926 75.8302 278.066 74.0358 276.75 72.599C275.434 71.1623 273.722 70.1486 271.83 69.6851L269.487 79.2524L259.919 76.9093Z" fill="#0F3E9F"/>
<path d="M269.552 70.4166C267.78 69.983 265.909 70.2702 264.348 71.2169C262.788 72.1629 261.668 73.6902 261.234 75.4623L267.916 77.0985L269.552 70.4166Z" fill="#FF566A"/>
<path d="M155.053 174.141C153.215 168.666 156.11 162.591 161.521 160.573L180.393 153.532C185.804 151.514 191.681 154.316 193.519 159.791L209.555 207.549C211.393 213.024 208.497 219.098 203.086 221.117L184.214 228.157C178.803 230.176 172.927 227.374 171.089 221.899L155.053 174.141Z" fill="#F8FCFF"/>
<path d="M179.095 192.267C185.563 192.267 190.806 186.898 190.806 180.276C190.806 173.654 185.563 168.286 179.095 168.286C172.626 168.286 167.383 173.654 167.383 180.276C167.383 186.898 172.626 192.267 179.095 192.267Z" fill="#0F3E9F"/>
<path fill-rule="evenodd" clip-rule="evenodd" d="M175.002 206.039C174.189 203.469 175.614 200.728 178.184 199.915L192.402 195.421C194.971 194.609 197.713 196.034 198.525 198.603C199.337 201.174 197.913 203.915 195.343 204.728L181.125 209.221C178.555 210.033 175.814 208.609 175.002 206.039Z" fill="#FF566A"/>
<path d="M394.154 270.42C404.283 271.274 405.591 282.467 404.979 287.956C403.171 287.096 401.75 283.354 390.71 280.126C374.343 275.338 360.458 256.6 354.109 257.795C363.254 255.017 384.026 269.565 394.154 270.42Z" fill="#01ACA2"/>
<path d="M398.349 260.862C403.14 269.222 405.636 285.112 406.285 292.012C403.168 288.014 394.732 277.908 385.928 269.468C374.923 258.918 376.039 254.808 371.014 247.772C366.994 242.142 359.515 239.819 356.277 239.36C357.501 237.171 362.626 239.192 370.368 243.184C378.109 247.176 378.051 242.747 380.24 243.972C382.429 245.196 392.36 250.412 398.349 260.862Z" fill="#00C8BC"/>
<path d="M359.385 246.505C364.377 244.834 371.412 249.789 373.156 251.104C373.263 250.712 371.006 246.885 370.322 245.691C369.466 244.199 360.173 236.634 355.694 239.201C352.111 241.254 350.551 250.412 350.219 254.734C351.194 252.687 354.393 248.176 359.385 246.505Z" fill="#01ACA2"/>
<path d="M404.273 249.191C395.34 265.781 400.869 282.512 404.273 288.326C411.419 272.672 432.346 223.668 434.047 213.459C427.668 217.713 414.846 229.553 404.273 249.191Z" fill="#00C8BC"/>
<path d="M414.056 252.594C404.867 267.568 403.705 282.938 404.272 288.751C410.398 279.223 424.125 242.81 430.218 225.795C428.663 228.489 423.246 237.621 414.056 252.594Z" fill="#01ACA2"/>
<path d="M407.168 275.946C401.096 282.747 403.227 292.318 405.051 296.253C407.893 300.42 410.421 296.643 412.899 288.129C418.135 270.134 426.257 263.672 433.2 255.981C429.498 259.614 414.756 267.444 407.168 275.946Z" fill="#01ACA2"/>
<path d="M423.971 258.363C415.411 264.824 414.249 268.724 411.176 272.02C417.934 268.646 427.7 261.27 431.214 258.363L435.592 252.9C432.434 252.9 431.597 252.61 423.971 258.363Z" fill="#00C8BC"/>
<path d="M400.686 279.2C404.09 277.839 408.627 285.723 410.47 289.834C410.47 291.111 408.343 292.387 401.963 292.387C396.858 292.387 389.91 288.416 387.074 286.432C393.88 286.432 396.432 280.901 400.686 279.2Z" fill="#01ACA2"/>
<path d="M395.58 277.924C399.05 277.924 401.535 278.633 402.385 279.2C399.833 279.2 397.281 282.178 394.729 284.305C392.176 286.432 387.923 286.432 383.244 291.111C378.564 295.79 373.885 308.977 372.183 308.551C370.482 308.126 364.384 299.618 367.929 291.111C372.184 280.901 374.526 276.828 378.565 274.521C381.542 272.82 383.669 273.244 387.497 274.946C389.624 275.891 390.901 277.924 395.58 277.924Z" fill="#00C8BC"/>
<path d="M389.902 296.556H413.326V328.206C413.326 330.13 411.765 331.691 409.84 331.691H393.388C391.463 331.691 389.902 330.13 389.902 328.206V296.556Z" fill="#E2F0FA"/>
<path d="M387.672 293.767C387.672 292.228 388.92 290.979 390.46 290.979H412.211C413.751 290.979 414.999 292.228 414.999 293.767C414.999 295.307 413.751 296.556 412.211 296.556H390.46C388.92 296.556 387.672 295.307 387.672 293.767Z" fill="#E2F0FA"/>
<path d="M334.595 66.1842C337.603 59.8431 345.492 57.5789 351.406 61.3601C354.839 63.5553 356.3 67.8315 354.928 71.6691L346.692 94.7035C343.132 104.66 331.345 108.859 322.293 103.395L318.133 100.884L334.595 66.1842Z" fill="#FF566A"/>
<path d="M291.569 93.8693L292.021 93.9836C293.802 94.4339 295.104 95.9613 295.266 97.792C295.475 100.164 293.725 102.258 291.354 102.475L285.238 103.031C283.562 103.184 281.878 102.833 280.402 102.024L276.327 99.7885C275.541 99.3577 275.123 98.4696 275.29 97.5898C275.497 96.5058 276.517 95.7752 277.61 95.9293L280.041 96.2722C280.825 96.3831 281.624 96.2778 282.353 95.969L282.453 95.9265C284.129 95.2161 285.159 93.5088 285.006 91.6949L284.82 89.5018C284.788 89.1156 284.992 88.7489 285.338 88.5739C285.756 88.3627 286.265 88.4875 286.539 88.8681L288.744 91.9445C289.429 92.8996 290.43 93.5813 291.569 93.8693Z" fill="#F9CCA3"/>
<path d="M341.573 82.7178L340.831 92.7271C340.213 101.072 336.347 106.787 327.992 106.311L295.428 105.24C293.583 105.136 292.141 103.608 292.141 101.76V95.3197C292.141 93.6542 293.319 92.2216 294.953 91.8996L341.573 82.7178Z" fill="#FF566A"/>
<path d="M114.96 206.209C114.96 201.281 110.965 197.286 106.036 197.286C101.108 197.286 97.1133 201.281 97.1133 206.209V226.844C97.1133 231.772 101.108 235.767 106.036 235.767C110.965 235.767 114.96 231.772 114.96 226.844V206.209Z" fill="#FFB84C"/>
<path d="M41.3412 176.093L87.5605 176.608L88.1879 185.831L43.3211 187.737C41.618 187.81 40.2495 186.351 40.4301 184.656L41.3412 176.093Z" fill="#120A3E"/>
<path d="M79.6757 125.584C77.9719 130.375 79.5063 135.719 83.4924 138.877L108.722 160.194L152.071 164.1C152.473 164.136 152.857 164.284 153.18 164.526L158.298 168.364C158.736 168.693 159.331 168.724 159.801 168.441C160.458 168.048 160.656 167.187 160.237 166.546L157.637 162.571L165.756 159.205L157.637 156.63L115.868 145.27L83.9253 113.631L79.6757 125.584Z" fill="#F9C799"/>
<path d="M75.2215 132.529C71.0255 128.463 70.5152 121.909 74.0308 117.242C77.3394 112.85 83.6867 112.206 87.8102 115.844L104.509 130.573C105.93 131.827 106.089 133.986 104.869 135.434L95.2959 146.79C93.9943 148.335 91.6562 148.452 90.2055 147.047L75.2215 132.529Z" fill="#FFB84C"/>
<path fill-rule="evenodd" clip-rule="evenodd" d="M87.5391 144.88L101.956 128.567L104.046 130.414L89.6283 146.726L87.5391 144.88Z" fill="#FF9F3B"/>
<path d="M116.773 267.213V246.782L97.2539 249.909L101.872 269.09L116.773 267.213Z" fill="#F9CCA3"/>
<path d="M102.079 268.611L116.496 264.671C117.11 264.503 117.749 264.837 117.979 265.446L126.15 287.051C126.468 287.892 125.986 289.167 125.109 289.167H117.215C116.912 289.167 116.618 289.052 116.39 288.846L107.849 281.099C105.617 279.371 101.152 275.788 101.152 275.276V269.85C101.152 269.269 101.532 268.761 102.079 268.611Z" fill="#261B65"/>
<path d="M115.254 265.016C113.577 266.625 112.933 269.124 113.821 271.417L118.997 284.775C120.187 287.849 123.681 289.389 126.799 288.215C126.807 288.212 126.804 288.213 126.807 288.212C126.799 287.752 126.524 286.951 126.418 286.682L118.117 265.446C117.877 264.837 117.211 264.503 116.571 264.671L115.254 265.016Z" fill="#120A3E"/>
<path d="M101.152 274.667V277.619C101.152 278.107 105.661 281.517 107.917 283.161L116.543 290.534C116.773 290.731 117.07 290.84 117.377 290.84H125.349C126.029 290.84 126.666 290.381 126.876 288.958C126.876 287.737 126.528 286.518 126.176 286.568H119.457C117.377 286.568 117.213 288.082 116.974 287.876L108.009 280.171C105.933 278.649 102.02 275.68 101.152 274.667Z" fill="#C3E5FE"/>
<path fill-rule="evenodd" clip-rule="evenodd" d="M122.031 272.829C122.141 273.466 121.768 274.082 121.198 274.205L114.674 275.614C114.103 275.737 113.551 275.321 113.441 274.684C113.331 274.047 113.704 273.432 114.274 273.308L120.798 271.9C121.369 271.776 121.921 272.192 122.031 272.829Z" fill="#C3E5FE"/>
<path fill-rule="evenodd" clip-rule="evenodd" d="M124.558 277.995C124.669 278.632 124.296 279.247 123.725 279.371L117.201 280.779C116.631 280.903 116.079 280.487 115.969 279.85C115.858 279.213 116.231 278.597 116.802 278.474L123.325 277.065C123.896 276.942 124.448 277.358 124.558 277.995Z" fill="#C3E5FE"/>
<path d="M107.006 275.224C108.392 275.224 109.515 274.101 109.515 272.715C109.515 271.329 108.392 270.205 107.006 270.205C105.62 270.205 104.496 271.329 104.496 272.715C104.496 274.101 105.62 275.224 107.006 275.224Z" fill="#C3E5FE"/>
<path fill-rule="evenodd" clip-rule="evenodd" d="M87.2196 211.866L79.5652 213.761C60.8593 218.393 42.3332 205.559 40.0934 186.419C40.0244 185.834 40.4433 185.305 41.0282 185.236L83.6915 180.219L89.1883 179.415C103.217 177.362 115.899 188.004 116.312 202.177L117.722 250.537L97.1397 254.107L87.2196 211.866Z" fill="#261B65"/>
<path fill-rule="evenodd" clip-rule="evenodd" d="M103.617 222.641C102.323 204.608 85.6383 191.706 67.8603 194.991L51.0324 198.1C50.465 198.205 49.9191 197.83 49.8146 197.262C49.7093 196.694 50.085 196.149 50.6525 196.044L67.4803 192.934C86.4846 189.422 104.32 203.214 105.704 222.491L107.656 249.7C107.697 250.276 107.264 250.776 106.687 250.817C106.111 250.859 105.611 250.425 105.57 249.85L103.617 222.641Z" fill="#0F3E9F"/>
<path d="M39.5607 135.222C39.0239 121.391 50.7356 110.221 64.5261 111.411L80.8653 112.237C88.4165 112.889 92.6132 122.694 92.1294 130.257L89.5005 176.176C89.3834 178.011 87.8609 179.44 86.0226 179.44H44.6288C42.7563 179.44 41.2185 177.96 41.146 176.089L39.5607 135.222Z" fill="#FDCF61"/>
<path d="M60.2968 179.439C58.8635 161.968 56.9415 127.247 56.2535 125.9L43.7868 142.53L40.7773 179.997L60.2968 179.439Z" fill="#FFB84C"/>
<path fill-rule="evenodd" clip-rule="evenodd" d="M71.3683 117.259C72.1372 117.212 72.7981 117.797 72.8441 118.566L73.9595 136.97C74.0062 137.738 73.4213 138.399 72.6524 138.446C71.8842 138.493 71.2233 137.907 71.1766 137.139L70.0612 118.735C70.0145 117.966 70.6001 117.305 71.3683 117.259Z" fill="#FFB84C"/>
<path d="M91.4667 158.643C91.9309 157.585 93.1648 157.105 94.2224 157.569L100.776 160.448C101.834 160.913 102.315 162.147 101.85 163.205L95.5915 177.45C95.1272 178.507 93.8933 178.988 92.8358 178.523L86.2821 175.644C85.2246 175.179 84.7436 173.945 85.2086 172.888L91.4667 158.643Z" fill="#E2F0FA"/>
<path d="M50.9731 147.584L32.3976 140.122L28.5927 149.593C27.1922 153.079 26.9984 156.751 27.814 160.146C29.2215 167.665 35.7807 173.78 44.2222 173.78H85.6543L90.6408 174.673C91.6977 174.863 92.7866 174.698 93.7402 174.205L95.338 173.381C97.4531 172.288 98.3371 169.728 97.3478 167.564C96.8375 166.448 95.8902 165.591 94.7281 165.196L88.7544 163.163L88.8137 163.116C89.7597 162.371 89.0653 160.858 87.8837 161.089C87.2556 161.212 86.6749 161.507 86.2057 161.941L85.3357 162.745L47.9211 155.182L50.9731 147.584Z" fill="#F9C799"/>
<path d="M39.154 120.787C42.5937 113.574 49.5642 108.941 57.5093 109.797L62.7865 110.464L52.7075 149.687C52.3833 150.782 51.2422 151.414 50.1421 151.109L30.0712 145.529C28.8192 145.181 28.1841 143.787 28.7439 142.614L39.154 120.787Z" fill="#FDCF61"/>
<path fill-rule="evenodd" clip-rule="evenodd" d="M58.842 109.179C59.0895 109.087 59.3627 109.217 59.4527 109.467L72.6171 144.699L78.4249 112.237C78.4737 111.975 78.7232 111.803 78.9826 111.853C79.2412 111.902 79.4113 112.155 79.3618 112.417L73.2306 146.605C73.1909 146.819 73.0145 146.979 72.8005 146.996C72.5858 147.014 72.3871 146.885 72.3132 146.68L58.5562 109.797C58.4662 109.547 58.5938 109.27 58.842 109.179Z" fill="white"/>
<path d="M67.5912 142.023C67.5968 140.868 68.5379 139.936 69.6931 139.941L75.6137 139.97C76.7688 139.976 77.7002 140.916 77.6946 142.071L77.634 154.727C77.6291 155.883 76.688 156.815 75.5329 156.809L69.6122 156.78C68.4571 156.775 67.5257 155.834 67.5313 154.679L67.5912 142.023Z" fill="#FF566A"/>
<path d="M31.0234 138.17L54.4468 145.978" stroke="#FFB84C" stroke-width="4"/>
<path d="M83.6381 284.351L87.0672 259.748L68.1055 263.112L69.3157 285.402L83.6381 284.351Z" fill="#F9CCA3"/>
<path d="M62.2746 220.25C61.4548 210.645 69.1803 202.467 78.8159 202.74C88.3888 203.011 95.6229 211.508 94.3625 221.002L87.5251 272.501H66.7327L62.2746 220.25Z" fill="#120A3E"/>
<path d="M68.3867 286.117C68.3867 284.82 69.1062 283.631 70.255 283.029L74.2426 280.94H79.8196L83.5903 283.014C84.7043 283.627 85.3965 284.798 85.3965 286.068V292.705C85.3965 293.041 85.3721 293.376 85.3233 293.709L83.5994 305.563C83.3505 307.276 81.8816 308.546 80.15 308.546H74.0836C72.3994 308.546 70.9556 307.342 70.6545 305.684L68.499 293.828C68.4244 293.417 68.3867 292.999 68.3867 292.581V286.117Z" fill="#261B65"/>
<path d="M73.6836 284.565C73.6836 282.563 75.3065 280.94 77.3086 280.94C79.3108 280.94 80.9337 282.563 80.9337 284.565V306.037H73.6836V284.565Z" fill="#120A3E"/>
<path d="M82.0378 304.921C82.8242 304.921 83.5248 305.418 83.7862 306.159C83.5785 307.53 82.3529 308.546 80.9085 308.546H73.3461C71.9407 308.546 70.736 307.582 70.4844 306.256C70.812 305.449 71.5963 304.921 72.4677 304.921H82.0378Z" fill="#C3E5FE"/>
<path fill-rule="evenodd" clip-rule="evenodd" d="M81.5389 289.797C81.5145 290.444 81.0216 290.968 80.4374 290.97L73.7639 290.989C73.1797 290.992 72.7265 290.469 72.7509 289.824C72.7753 289.178 73.2689 288.653 73.8524 288.651L80.5266 288.632C81.1101 288.63 81.5633 289.152 81.5389 289.797Z" fill="#C3E5FE"/>
<path fill-rule="evenodd" clip-rule="evenodd" d="M81.6717 295.376C81.6473 296.022 81.1544 296.547 80.5709 296.549L73.8967 296.568C73.3125 296.57 72.8594 296.048 72.8838 295.403C72.9088 294.757 73.4017 294.232 73.9852 294.23L80.6595 294.21C81.243 294.208 81.6961 294.731 81.6717 295.376Z" fill="#C3E5FE"/>
<path d="M73.6553 95.3405C72.1265 101.104 63.9541 102.549 58.191 101.021C52.4272 99.4912 48.9945 93.5796 50.524 87.8165C52.0528 82.0527 57.9644 78.62 63.7282 80.1495C69.492 81.6783 75.1841 89.5774 73.6553 95.3405Z" fill="black"/>
<path d="M66.365 98.7344C69.5429 99.5775 72.8027 97.6848 73.6459 94.5068C74.489 91.3288 72.5963 88.0691 69.4183 87.2259C66.2403 86.3827 62.9805 88.2755 62.1374 91.4535C61.2942 94.6314 63.187 97.8912 66.365 98.7344Z" fill="#FF566A"/>
<path d="M62.5749 97.8091L74.4399 99.8921L77.0604 112.355L61.1367 110.875L62.5749 97.8091Z" fill="#F9C799"/>
<path d="M76.3365 108.751C75.9879 109.1 75.104 109.353 74.4828 109.443C69.5632 110.152 63.8447 105.643 62.7342 101.037L62.5 99.7944L74.6523 101.323L76.3365 108.751Z" fill="#F19C5C"/>
<path d="M69.4944 117.46C63.4448 116.401 61.0572 112.162 60.3008 110.146L77.7289 112.055C77.2248 114.261 75.5441 118.519 69.4944 117.46Z" fill="#F9C799"/>
<path d="M79.5653 95.6079C80.4815 91.297 77.7297 87.0596 73.4188 86.1434C69.1079 85.2271 64.8705 87.979 63.9543 92.2899L62.6531 98.4118C61.7369 102.723 64.4888 106.96 68.7996 107.876C73.1105 108.793 77.3479 106.041 78.2641 101.73L79.5653 95.6079Z" fill="#F9C799"/>
<path d="M72.7821 98.5389C72.3697 98.5328 72.0404 98.1936 72.0465 97.7812C72.0526 97.3689 72.3918 97.0395 72.8041 97.0456C73.2165 97.0517 73.5458 97.3909 73.5398 97.8033C73.5337 98.2156 73.1944 98.545 72.7821 98.5389Z" fill="black"/>
<path d="M77.9969 99.3621C77.5846 99.356 77.2552 99.0168 77.2613 98.6045C77.2674 98.1921 77.6066 97.8628 78.019 97.8689C78.4313 97.8749 78.7607 98.2142 78.7546 98.6265C78.7485 99.0389 78.4093 99.3682 77.9969 99.3621Z" fill="black"/>
<path d="M76.0767 102.799C76.9565 102.428 75.7665 99.9997 75.0624 98.832L73.7497 101.855C73.5734 102.26 73.7853 102.725 74.2154 102.808C74.8024 102.923 75.5818 103.008 76.0767 102.799Z" fill="#F19C5C"/>
<path fill-rule="evenodd" clip-rule="evenodd" d="M76.7219 95.0755C77.2559 95.0128 77.7947 95.192 78.1879 95.5635L78.2967 95.6653C78.5219 95.8779 78.8753 95.8724 79.0865 95.6528C79.297 95.4339 79.2859 95.0832 79.0607 94.8706L78.952 94.7688C78.3134 94.1651 77.4392 93.8744 76.5713 93.9769L76.48 93.9873C76.174 94.0236 75.9599 94.299 76.0011 94.6022C76.0429 94.9055 76.3245 95.1223 76.6299 95.086L76.7219 95.0755ZM74.5622 94.2348C74.6786 93.9532 74.5413 93.6283 74.2555 93.5084L74.038 93.4171C72.8445 92.9159 71.4956 92.9695 70.3648 93.5635L70.2359 93.6304C69.9654 93.7726 69.8657 94.1072 70.0142 94.3777C70.162 94.6482 70.5015 94.7521 70.7727 94.6099L70.9009 94.5429C71.7368 94.1038 72.7336 94.064 73.6162 94.4349L73.8337 94.5262C74.1195 94.6461 74.4458 94.5158 74.5622 94.2348Z" fill="#102054"/>
<path d="M73.8185 103.793L70.832 103.749C71.1185 105.744 73.4727 105.779 73.8185 103.793Z" fill="white"/>
<path d="M71.6533 90.1326C73.438 90.8806 76.1142 91.605 77.8926 91.2794C78.3694 92.171 78.9884 92.9908 79.7337 93.7019C79.6249 90.111 77.0853 86.9238 73.4149 86.1437C69.1039 85.2277 64.8668 87.9792 63.9501 92.2902L63.1094 96.2464C66.961 96.4827 69.9391 93.8204 71.6533 90.1326Z" fill="black"/>
<path d="M62.1683 100.437C63.6448 100.685 65.0432 99.6895 65.2917 98.2129C65.5401 96.7364 64.5446 95.338 63.0681 95.0895C61.5915 94.8411 60.1931 95.8366 59.9446 97.3132C59.6962 98.7897 60.6917 100.188 62.1683 100.437Z" fill="#F9C799"/>
<path d="M62.508 99.3516C63.2462 99.4758 63.9454 98.978 64.0697 98.2398C64.1939 97.5015 63.6961 96.8023 62.9578 96.6781C62.2196 96.5538 61.5204 97.0516 61.3961 97.7899C61.2719 98.5281 61.7697 99.2273 62.508 99.3516Z" fill="#F19C5C"/>
<path fill-rule="evenodd" clip-rule="evenodd" d="M65.2401 92.1773C65.7204 91.9709 66.2767 92.1926 66.4838 92.6722L67.9115 95.9898C68.1185 96.4702 67.8968 97.0265 67.4165 97.2328C66.9369 97.4398 66.3799 97.2182 66.1735 96.7379L64.7451 93.4209C64.5388 92.9406 64.7605 92.3836 65.2401 92.1773Z" fill="#FFB84C"/>
<path d="M316.069 209.997H303.789V223.186H316.069V209.997Z" fill="#F9CCA3"/>
<path d="M303.789 215.681V220.229L307.996 215.113L303.789 215.681Z" fill="#F19C5C"/>
<path d="M316.298 205.221C316.298 200.7 312.633 197.035 308.112 197.035C303.591 197.035 299.926 200.7 299.926 205.221V209.769C299.926 214.291 303.591 217.955 308.112 217.955C312.633 217.955 316.298 214.291 316.298 209.769V205.221Z" fill="#F9CCA3"/>
<path d="M297.83 200.037L300.879 204.852C301.262 205.456 301.735 205.992 302.277 206.444C302.277 206.454 302.277 206.463 302.277 206.472V210.111C302.277 210.801 302.837 211.361 303.528 211.361C304.219 211.361 304.778 210.801 304.778 210.111L305.157 207.933L305.688 208.178L306.647 212.861C307.214 215.628 309.649 217.615 312.473 217.615C315.622 217.615 318.225 215.16 318.411 212.017L318.993 202.113C319.067 200.865 318.866 199.616 318.404 198.455C317.111 195.196 313.96 193.056 310.453 193.056H301.672C298.088 193.056 295.912 197.009 297.83 200.037Z" fill="#001748"/>
<path d="M296.476 196.69C294.613 194.524 294.877 191.186 297.066 189.233C299.256 187.28 302.542 187.453 304.406 189.619L309.423 195.449L301.492 202.52L296.476 196.69Z" fill="#FF566A"/>
<path d="M304.811 190.163L309.422 195.83L301.842 202.978L298.468 198.83C298.3 197.174 298.82 195.449 300.313 193.596C301.579 192.025 303.13 190.876 304.811 190.163Z" fill="#EC3D52"/>
<path d="M320.745 210.824C316.2 216.063 311.489 212.914 306.25 208.37C301.011 203.826 297.228 199.607 301.773 194.367C306.317 189.128 314.248 188.566 319.487 193.11C324.726 197.654 325.289 205.585 320.745 210.824Z" fill="#FF566A"/>
<path d="M303.688 210.283C303.688 211.926 305.02 213.259 306.663 213.259C308.305 213.259 309.637 211.926 309.637 210.283C309.637 208.64 308.305 207.309 306.663 207.309C305.02 207.309 303.688 208.64 303.688 210.283Z" fill="#F9CCA3"/>
<path d="M305.059 210.054C305.059 210.813 305.673 211.428 306.431 211.428C307.19 211.428 307.805 210.813 307.805 210.054C307.805 209.296 307.19 208.681 306.431 208.681C305.673 208.681 305.059 209.296 305.059 210.054Z" fill="#F19C5C"/>
<path d="M399.941 352.931H392.133V370.22H399.941V352.931Z" fill="#F9CCA3"/>
<path d="M398.714 352.055L399.935 370.891C399.987 371.694 400.637 372.327 401.443 372.362L430.038 373.619C431.147 373.667 432.45 372.585 432.095 371.535L428.902 362.074C428.776 361.71 428.525 361.403 428.191 361.212L415.666 354.036C412.74 352.043 406.74 348.108 406.14 348.311L399.789 350.454C399.109 350.684 398.668 351.34 398.714 352.055Z" fill="#FF566A"/>
<path d="M399.832 369.285C401.045 366.738 403.686 365.027 406.681 365.148L424.129 365.849C428.137 366.01 431.267 369.403 431.114 373.426C431.114 373.436 431.114 373.433 431.114 373.436C430.577 373.606 429.545 373.605 429.197 373.589L401.435 372.389C400.637 372.353 399.994 371.722 399.941 370.924L399.832 369.285Z" fill="#EC3D52"/>
<path d="M404.555 348.807L408.081 347.617C408.664 347.42 414.528 351.356 417.388 353.348L429.62 360.535C429.948 360.726 430.199 361.032 430.318 361.393L433.49 370.781C433.754 371.581 433.496 372.413 431.879 373.234C430.422 373.726 428.784 373.678 428.714 373.477L426.044 365.564C425.215 363.115 426.957 362.312 426.616 362.113L413.854 354.662C411.212 352.831 406.111 349.42 404.555 348.807Z" fill="#C3E5FE"/>
<path fill-rule="evenodd" clip-rule="evenodd" d="M411.512 374.082C412.261 373.97 412.799 373.309 412.713 372.604L411.735 364.546C411.65 363.841 410.973 363.359 410.223 363.47C409.473 363.582 408.935 364.242 409.021 364.947L409.999 373.007C410.084 373.711 410.761 374.192 411.512 374.082Z" fill="#C3E5FE"/>
<path fill-rule="evenodd" clip-rule="evenodd" d="M418.228 375.061C418.981 374.951 419.518 374.289 419.434 373.584L418.451 365.525C418.368 364.821 417.691 364.34 416.941 364.45C416.192 364.561 415.654 365.223 415.739 365.928L416.718 373.986C416.803 374.691 417.48 375.172 418.228 375.061Z" fill="#C3E5FE"/>
<path d="M408.387 355.239C408.941 356.88 408.06 358.659 406.419 359.213C404.778 359.767 402.998 358.886 402.444 357.245C401.89 355.604 402.772 353.824 404.413 353.27C406.054 352.716 407.833 353.598 408.387 355.239Z" fill="#E2F0FA"/>
<path d="M307.781 313.89L337.257 312.311L343.982 345.482L397.439 350.808L396.563 371.113L348.028 371.405C344.607 371.425 341.394 370.693 338.523 369.376C329.087 369.65 320.614 363.558 317.89 354.487L307.781 313.89Z" fill="#120A3E"/>
<path d="M365.923 362.922H357V380.769H365.923V362.922Z" fill="#F9CCA3"/>
<path d="M364.55 361.951L365.771 380.787C365.823 381.589 366.473 382.223 367.279 382.258L395.873 383.515C396.986 383.563 398.283 382.481 397.929 381.43L394.735 371.97C394.612 371.606 394.36 371.299 394.025 371.108L381.501 363.932C378.576 361.939 372.576 358.003 371.976 358.206L365.625 360.35C364.945 360.58 364.504 361.237 364.55 361.951Z" fill="#FF566A"/>
<path d="M365.676 379.181C366.889 376.635 369.53 374.924 372.524 375.044L389.97 375.745C393.985 375.907 397.113 379.299 396.959 383.322C396.958 383.332 396.959 383.329 396.958 383.332C396.424 383.502 395.391 383.502 395.039 383.485L367.278 382.286C366.481 382.249 365.838 381.618 365.785 380.82L365.676 379.181Z" fill="#EC3D52"/>
<path d="M370.398 358.702L373.925 357.512C374.507 357.316 380.372 361.252 383.232 363.244L395.466 370.43C395.793 370.622 396.04 370.927 396.162 371.289L399.33 380.677C399.601 381.477 399.34 382.309 397.724 383.13C396.267 383.623 394.627 383.574 394.559 383.372L391.888 375.46C391.061 373.011 392.803 372.208 392.463 372.008L379.697 364.558C377.055 362.728 371.954 359.317 370.398 358.702Z" fill="#C3E5FE"/>
<path fill-rule="evenodd" clip-rule="evenodd" d="M377.344 383.977C378.093 383.867 378.631 383.205 378.545 382.5L377.567 374.441C377.482 373.737 376.805 373.256 376.055 373.366C375.305 373.477 374.767 374.139 374.853 374.844L375.831 382.902C375.917 383.607 376.593 384.089 377.344 383.977Z" fill="#C3E5FE"/>
<path fill-rule="evenodd" clip-rule="evenodd" d="M384.058 384.958C384.808 384.846 385.346 384.185 385.26 383.48L384.282 375.421C384.196 374.716 383.52 374.235 382.77 374.346C382.02 374.458 381.482 375.118 381.568 375.823L382.546 383.882C382.631 384.587 383.308 385.068 384.058 384.958Z" fill="#C3E5FE"/>
<path d="M374.227 365.134C374.781 366.775 373.9 368.555 372.259 369.109C370.618 369.663 368.838 368.781 368.284 367.14C367.73 365.499 368.612 363.72 370.253 363.166C371.894 362.612 373.673 363.493 374.227 365.134Z" fill="#E2F0FA"/>
<path d="M286.314 317.888H320.628L315.649 356.759L361.816 361.258V382.324L313.512 382.619C311.432 382.631 309.427 382.371 307.525 381.876C292.93 379.42 282.186 366.089 283.495 350.813L286.314 317.888Z" fill="#261B65"/>
<path d="M286.434 303.289L335.316 301.018L339.712 324.082L284.5 341.73L286.434 303.289Z" fill="#261B65"/>
<path d="M298.087 311.318C298.116 310.742 297.673 310.25 297.096 310.221C296.519 310.192 296.028 310.636 295.998 311.212L295.508 320.87L288.716 312.623C288.349 312.177 287.69 312.113 287.244 312.48C286.798 312.847 286.735 313.506 287.102 313.952L294.909 323.433C295.033 323.584 295.191 323.69 295.362 323.752L293.857 353.405C293.463 361.158 299.054 367.928 306.742 369.007L357.687 376.157C358.258 376.238 358.787 375.839 358.868 375.268C358.948 374.695 358.549 374.167 357.977 374.087L307.033 366.936C300.418 366.008 295.607 360.182 295.945 353.511L298.087 311.318Z" fill="#0F3E9F"/>
<path fill-rule="evenodd" clip-rule="evenodd" d="M304.922 313.845C304.922 313.267 305.39 312.799 305.968 312.799H320.468C321.046 312.799 321.513 313.267 321.513 313.845C321.513 314.422 321.046 314.89 320.468 314.89H305.968C305.39 314.89 304.922 314.422 304.922 313.845Z" fill="#0F3E9F"/>
<path fill-rule="evenodd" clip-rule="evenodd" d="M337.676 312.015C337.763 312.586 337.37 313.119 336.799 313.206L327.597 314.6C327.026 314.686 326.493 314.294 326.406 313.723C326.32 313.152 326.713 312.619 327.284 312.532L336.486 311.138C337.057 311.051 337.59 311.444 337.676 312.015Z" fill="#0F3E9F"/>
<path d="M363.818 144.126L367.682 147.256L364.8 153.087L360.678 146.043C360.484 145.712 360.361 145.346 360.316 144.965L359.84 140.986C359.794 140.604 359.96 140.227 360.274 140.004C360.816 139.619 361.575 139.827 361.844 140.434L363.025 143.092C363.204 143.494 363.476 143.849 363.818 144.126Z" fill="#F9CCA3"/>
<path d="M386.029 94.0446L362.949 91.2054C357.217 90.5003 351.999 94.5754 351.294 100.307L347.478 131.322C346.773 137.054 350.848 142.272 356.58 142.977L379.661 145.816C385.393 146.521 390.611 142.446 391.316 136.714L395.131 105.7C395.836 99.9679 391.761 94.7497 386.029 94.0446Z" fill="#E2F0FA"/>
<path fill-rule="evenodd" clip-rule="evenodd" d="M369.489 106.58C368.808 106.81 367.947 107.306 366.887 108.691C366.205 109.582 365.872 110.688 365.872 112.074C365.872 113.704 364.571 115.025 362.967 115.025C361.363 115.025 360.062 113.704 360.062 112.074C360.062 109.682 360.659 107.213 362.301 105.067C363.952 102.91 365.72 101.635 367.651 100.98C369.41 100.384 371.116 100.385 372.363 100.386C372.407 100.386 372.451 100.386 372.494 100.386C374.099 100.386 375.399 101.708 375.399 103.337C375.399 104.967 374.099 106.289 372.494 106.289C371.108 106.289 370.279 106.312 369.489 106.58Z" fill="#3A6FDF"/>
<path fill-rule="evenodd" clip-rule="evenodd" d="M369.087 103.295C369.087 101.688 370.353 100.386 371.914 100.386C378.459 100.386 383.765 105.848 383.765 112.585C383.765 119.323 378.459 124.785 371.914 124.785C365.368 124.785 360.062 119.323 360.062 112.585C360.062 110.979 361.328 109.676 362.889 109.676C364.45 109.676 365.715 110.979 365.715 112.585C365.715 116.109 368.49 118.967 371.914 118.967C375.337 118.967 378.112 116.109 378.112 112.585C378.112 109.061 375.337 106.204 371.914 106.204C370.353 106.204 369.087 104.902 369.087 103.295Z" fill="#FF566A"/>
<path d="M377.59 145.872L375.163 158.369L362.664 160.402L368.334 139.859C369.121 137.008 372.614 135.955 374.846 137.897C377.118 139.874 378.165 142.914 377.59 145.872Z" fill="#F9CCA3"/>
<path d="M367.602 204.267L367.715 204.316L376.047 162.66C376.431 160.741 375.159 158.883 373.232 158.544L364.061 156.933C362.406 156.642 360.779 157.573 360.192 159.148L347.3 193.712L321.301 222.167L342.513 239.809L367.602 204.267Z" fill="#FF566A"/>
<path d="M376.729 155.851L363.457 153.228L362.317 158.996L375.589 161.62L376.729 155.851Z" fill="#EC3D52"/>
<path d="M286.609 299.344L335.605 297.671L336.656 305.828L285.348 307.71L286.609 299.344Z" fill="#EC3D52"/>
<path d="M342.754 237.554C343.257 229.174 338.979 220.151 330.562 220.151L298.414 226.294C288.521 228.957 284.284 232.303 283.822 240.004L281.356 295.941C281.136 300.944 285.33 305.018 290.325 304.652L333.062 301.519C338.526 301.119 342.754 296.569 342.754 291.09V237.554Z" fill="#FF566A"/>
<path d="M281.641 286.866L291.487 250.825L282.888 253.979L281.641 286.866Z" fill="#EC3D52"/>
<path d="M294.27 227.6C300.85 223.482 308.406 220.939 316.142 220.287L322.147 219.781C323.496 219.667 324.785 220.357 325.439 221.543L326.07 222.69C326.967 224.317 326.291 226.363 324.602 227.136C321.82 228.409 318.769 228.985 315.714 228.812L294.27 227.6Z" fill="#EC3D52"/>
<path d="M215.9 221.269C214.274 220.211 212.448 219.626 210.65 219.59L207.986 219.535C207.664 219.529 207.353 219.586 207.069 219.703L199.402 222.879C199.075 223.014 198.713 223.075 198.34 223.058L192.719 222.795C192.185 222.77 191.724 223.049 191.521 223.521C191.18 224.309 191.659 225.334 192.531 225.68L200.455 228.822L200.389 228.869L210.926 233.501L222.72 225.71L215.9 221.269Z" fill="#F9CCA3"/>
<path fill-rule="evenodd" clip-rule="evenodd" d="M270.893 270.848C265.655 273.868 258.902 273.608 253.839 269.689L216.461 240.755C212.595 237.764 212.107 232.11 215.402 228.501L216.551 227.242C219.154 224.39 223.371 223.691 226.756 225.55L265.166 246.643L287.26 230.324C293.139 225.981 300.976 225.353 307.471 228.706C311.749 230.914 312.449 236.741 308.817 239.9L277.186 267.406C275.291 269.053 273.141 270.194 270.893 270.848Z" fill="#FF566A"/>
<path d="M217.253 221.551L209.289 233.8L214.219 237.006L222.183 224.756L217.253 221.551Z" fill="#EC3D52"/>
<path d="M3.62111 213.493C0.572593 205.703 6.31759 197.286 14.6831 197.286H43.4282C53.0534 197.286 60.8563 205.089 60.8563 214.714V218.339C60.8563 227.964 53.0534 235.767 43.4282 235.767H36.2548C21.8293 235.767 8.87742 226.927 3.62111 213.493Z" fill="white"/>
<path fill-rule="evenodd" clip-rule="evenodd" d="M14.6831 197.983C6.80837 197.983 1.40077 205.906 4.27013 213.239C9.42187 226.406 22.1158 235.07 36.2548 235.07H43.4282C52.6686 235.07 60.1592 227.579 60.1592 218.339V214.714C60.1592 205.473 52.6686 197.983 43.4282 197.983H14.6831ZM14.6831 197.286C6.31759 197.286 0.572593 205.703 3.62111 213.493C8.87742 226.927 21.8293 235.767 36.2548 235.767H43.4282C53.0534 235.767 60.8563 227.964 60.8563 218.339V214.714C60.8563 205.089 53.0534 197.286 43.4282 197.286H14.6831Z" fill="#AFCCE4"/>
</svg>
