<svg width="27" height="40" viewBox="0 0 27 40" fill="none" xmlns="http://www.w3.org/2000/svg">
<path d="M13.3333 0C11.5007 0 10 1.50065 10 3.33333V4.16667H2.5C1.12956 4.16667 0 5.29622 0 6.66667V37.5C0 38.8704 1.12956 40 2.5 40H24.1667C25.5371 40 26.6667 38.8704 26.6667 37.5V6.66667C26.6667 5.29622 25.5371 4.16667 24.1667 4.16667H16.6667V3.33333C16.6667 1.50065 15.166 0 13.3333 0ZM13.3333 1.66667C14.2643 1.66667 15 2.40234 15 3.33333V4.86003C14.9837 4.95117 14.9837 5.04232 15 5.13021V6.66667H11.6667V5.13997C11.6829 5.04883 11.6829 4.95768 11.6667 4.86979V3.33333C11.6667 2.40234 12.4023 1.66667 13.3333 1.66667ZM13.3333 2.5C12.8743 2.5 12.5 2.87435 12.5 3.33333C12.5 3.79232 12.8743 4.16667 13.3333 4.16667C13.7923 4.16667 14.1667 3.79232 14.1667 3.33333C14.1667 2.87435 13.7923 2.5 13.3333 2.5ZM2.5 5.83333H10V7.5C10 7.95898 10.3743 8.33333 10.8333 8.33333H15.8333C16.2923 8.33333 16.6667 7.95898 16.6667 7.5V5.83333H24.1667C24.6387 5.83333 25 6.19466 25 6.66667V37.5C25 37.972 24.6387 38.3333 24.1667 38.3333H2.5C2.028 38.3333 1.66667 37.972 1.66667 37.5V6.66667C1.66667 6.19466 2.028 5.83333 2.5 5.83333Z" fill="#151A34"/>
<path d="M20.2422 16.9108L10.8314 26.3216L6.42057 21.9108L5.24219 23.0892L10.8314 28.6783L21.4206 18.0892L20.2422 16.9108Z" fill="#009AD7"/>
</svg>
