<svg width="414" height="280" viewBox="0 0 414 280" fill="none" xmlns="http://www.w3.org/2000/svg">
<g filter="url(#filter0_d)">
<path d="M16 52C16 43.1634 23.1634 36 32 36H382C390.837 36 398 43.1634 398 52V212C398 220.837 390.837 228 382 228H215L207 236L199 228H32C23.1634 228 16 220.837 16 212V52Z" fill="white"/>
<path d="M215 227.75H214.896L214.823 227.823L207 235.646L199.177 227.823L199.104 227.75H199H32C23.3015 227.75 16.25 220.698 16.25 212V52C16.25 43.3015 23.3015 36.25 32 36.25H382C390.698 36.25 397.75 43.3015 397.75 52V212C397.75 220.698 390.698 227.75 382 227.75H215Z" stroke="#F5F5F5" stroke-width="0.5"/>
</g>
<defs>
<filter id="filter0_d" x="-24" y="0" width="462" height="280" filterUnits="userSpaceOnUse" color-interpolation-filters="sRGB">
<feFlood flood-opacity="0" result="BackgroundImageFix"/>
<feColorMatrix in="SourceAlpha" type="matrix" values="0 0 0 0 0 0 0 0 0 0 0 0 0 0 0 0 0 0 127 0"/>
<feOffset dy="4"/>
<feGaussianBlur stdDeviation="20"/>
<feColorMatrix type="matrix" values="0 0 0 0 0 0 0 0 0 0 0 0 0 0 0 0 0 0 0.08 0"/>
<feBlend mode="normal" in2="BackgroundImageFix" result="effect1_dropShadow"/>
<feBlend mode="normal" in="SourceGraphic" in2="effect1_dropShadow" result="shape"/>
</filter>
</defs>
</svg>
