<svg width="17" height="17" viewBox="0 0 17 17" fill="none" xmlns="http://www.w3.org/2000/svg">
<path d="M10.7031 16.2266C10.9766 16.2266 11.25 16.1562 11.4844 16.0234L15.5703 13.7031C16.0391 13.4453 16.25 13.0703 16.25 12.5469V1.71094C16.25 1.13281 15.9297 0.8125 15.3672 0.8125C15.1719 0.8125 14.9688 0.875 14.7109 1.01562L10.5703 3.32031L6.32812 0.71875C6.08594 0.578125 5.8125 0.5 5.53906 0.5C5.25781 0.5 4.97656 0.578125 4.73438 0.71875L0.671875 3.03125C0.210938 3.29688 0 3.67188 0 4.19531V15.0156C0 15.5938 0.320312 15.9219 0.882812 15.9219C1.07812 15.9219 1.28125 15.8516 1.53125 15.7109L5.50781 13.5703L9.82812 15.9922C10.1094 16.1484 10.4141 16.2266 10.7031 16.2266ZM1.35938 14.3047C1.29688 14.3047 1.25781 14.2578 1.25781 14.1797V4.5C1.25781 4.3125 1.32812 4.17969 1.51562 4.07031L4.71875 2.19531C4.82031 2.14062 4.90625 2.09375 5 2.03906V12.3281L1.47656 14.2656C1.4375 14.2812 1.39844 14.3047 1.35938 14.3047ZM9.99219 14.5469C9.88281 14.4844 9.76562 14.4297 9.64844 14.3672L6.25781 12.4531V2.20312C6.33594 2.25 6.42969 2.29688 6.50781 2.34375L9.99219 4.46875V14.5469ZM11.25 14.6875V4.39062L14.7734 2.46875C14.8125 2.44531 14.8516 2.42969 14.8828 2.42969C14.9531 2.42969 14.9922 2.47656 14.9922 2.55469V12.2344C14.9922 12.4297 14.9141 12.5625 14.7344 12.6719L11.6016 14.4922C11.4844 14.5625 11.3672 14.6328 11.25 14.6875Z" fill="#151A34"/>
</svg>
