<svg width="20" height="20" viewBox="0 0 20 20" fill="none" xmlns="http://www.w3.org/2000/svg">
<path d="M14.8516 19.5293C16.5605 19.5293 17.6836 19.0703 18.6699 17.957C18.748 17.8789 18.8262 17.791 18.8945 17.7129C19.4805 17.0586 19.7539 16.4141 19.7539 15.7988C19.7539 15.0957 19.3438 14.4414 18.4746 13.8359L15.6328 11.8633C14.7539 11.2578 13.7285 11.1895 12.9082 12L12.1562 12.752C11.9316 12.9766 11.7363 12.9863 11.5215 12.8496C10.9941 12.5176 9.92969 11.5898 9.20703 10.8672C8.44531 10.1152 7.71289 9.27539 7.32227 8.66016C7.19531 8.43555 7.20508 8.25 7.42969 8.02539L8.17188 7.27344C8.99219 6.45312 8.92383 5.41797 8.31836 4.54883L6.3457 1.70703C5.74023 0.837891 5.08594 0.4375 4.38281 0.427734C3.76758 0.417969 3.12305 0.701172 2.46875 1.28711C2.38086 1.36523 2.30273 1.43359 2.22461 1.50195C1.11133 2.49805 0.652344 3.62109 0.652344 5.31055C0.652344 8.10352 2.37109 11.502 5.52539 14.6562C8.66016 17.791 12.0684 19.5293 14.8516 19.5293ZM14.8613 18.0254C12.3711 18.0742 9.17773 16.1602 6.64844 13.6406C4.09961 11.1016 2.09766 7.80078 2.14648 5.31055C2.16602 4.23633 2.54688 3.30859 3.30859 2.64453C3.37695 2.58594 3.42578 2.53711 3.49414 2.48828C3.78711 2.23438 4.09961 2.09766 4.38281 2.09766C4.66602 2.09766 4.91992 2.20508 5.10547 2.49805L7 5.33984C7.20508 5.64258 7.22461 5.98438 6.92188 6.28711L6.0625 7.14648C5.38867 7.82031 5.4375 8.64062 5.92578 9.29492C6.48242 10.0469 7.44922 11.1406 8.20117 11.8828C8.94336 12.6348 10.125 13.6895 10.8867 14.2559C11.541 14.7441 12.3613 14.793 13.0352 14.1191L13.8945 13.2598C14.1973 12.957 14.5293 12.9766 14.8418 13.1719L17.6836 15.0664C17.9766 15.2617 18.084 15.5059 18.084 15.7988C18.084 16.082 17.9473 16.3945 17.6934 16.6875C17.6348 16.7559 17.5957 16.8047 17.5371 16.873C16.873 17.6348 15.9453 18.0059 14.8613 18.0254Z" fill="#151A34"/>
</svg>
