<svg width="30" height="30" viewBox="0 0 30 30" fill="none" xmlns="http://www.w3.org/2000/svg">
<path d="M12.23 23.4116C14.8184 23.4116 17.1948 22.5488 19.1172 21.0957L26.8218 28.8154C27.0791 29.0728 27.4424 29.2241 27.8208 29.2241C28.6685 29.2241 29.2285 28.5732 29.2285 27.7861C29.2285 27.4229 29.1074 27.0596 28.835 26.7871L21.1606 19.1128C22.75 17.145 23.6885 14.6626 23.6885 11.9531C23.6885 5.65625 18.542 0.494629 12.23 0.494629C5.91797 0.494629 0.771484 5.65625 0.771484 11.9531C0.771484 18.2651 5.91797 23.4116 12.23 23.4116ZM12.23 21.4893C6.99268 21.4893 2.69385 17.1904 2.69385 11.9531C2.69385 6.73096 6.99268 2.41699 12.23 2.41699C17.4673 2.41699 21.7661 6.73096 21.7661 11.9531C21.7661 17.1904 17.4673 21.4893 12.23 21.4893ZM13.4712 16.4033V13.1035H16.4834C17.104 13.1035 17.6187 12.5586 17.6187 11.9531C17.6187 11.3628 17.104 10.8179 16.4834 10.8179H13.4712V7.50293C13.4712 6.7915 12.8657 6.35254 12.23 6.35254C11.5942 6.35254 10.9888 6.7915 10.9888 7.50293V10.8179H7.97656C7.35596 10.8179 6.84131 11.3628 6.84131 11.9531C6.84131 12.5586 7.35596 13.1035 7.97656 13.1035H10.9888V16.4033C10.9888 17.1147 11.5942 17.5688 12.23 17.5688C12.8657 17.5688 13.4712 17.1147 13.4712 16.4033Z" fill="#999999"/>
</svg>
